<svg width="240" height="240" viewBox="0 0 240 240" fill="none" xmlns="http://www.w3.org/2000/svg">
<path d="M86.9884 95.5092C86.9884 95.5092 85.4152 83.0068 85.7878 76.9625C86.1604 70.9183 89.5551 60.0304 97.0069 54.3588C110.876 43.8021 134.928 48.6043 141.055 52.9926C150.453 59.6992 152.606 69.8833 151.943 78.2873C151.529 83.5864 150.411 92.9011 149.294 94.9711C148.217 97.0824 87.154 97.248 86.9884 95.5092Z" fill="#3F3832"/>
<path d="M156.621 161.044H80.7786C80.7786 161.044 103.175 148.707 104.749 144.733C105.411 143.077 105.825 139.185 106.115 135.211C106.156 134.797 106.156 134.383 106.197 133.969C106.529 128.96 106.611 124.24 106.611 124.24H130.83C130.83 124.24 130.913 128.96 131.244 133.969C131.285 134.383 131.285 134.797 131.327 135.211C131.616 139.185 132.03 143.077 132.693 144.733C134.225 148.707 156.621 161.044 156.621 161.044Z" fill="#F4BD98"/>
<path opacity="0.25" d="M131.327 135.252C126.773 137.364 122.302 138.481 118.7 138.481C115.098 138.481 110.627 137.364 106.073 135.252C106.115 134.838 106.115 134.424 106.156 134.01C106.487 129.001 106.57 124.281 106.57 124.281H130.789C130.789 124.281 130.871 129.001 131.203 134.01C131.244 134.383 131.285 134.838 131.327 135.252Z" fill="#DD7F50"/>
<path d="M146.313 81.0196C139.151 67.5236 118.7 67.5236 118.7 67.5236C118.7 67.5236 98.2904 67.5236 91.087 81.0196C87.4853 87.809 88.5617 115.753 95.7237 122.625C102.886 129.498 112.283 133.638 118.7 133.638C125.117 133.638 134.473 129.498 141.676 122.625C148.838 115.753 149.915 87.809 146.313 81.0196Z" fill="#F4BD98"/>
<path d="M102.472 91.6592C102.472 93.2737 103.548 94.5985 104.914 94.5985C106.28 94.5985 107.357 93.2737 107.357 91.6592C107.357 90.0446 106.28 88.7198 104.914 88.7198C103.589 88.7198 102.472 90.0446 102.472 91.6592Z" fill="#3F3832"/>
<path d="M130.209 91.659C130.209 93.2736 131.285 94.5984 132.652 94.5984C134.018 94.5984 135.094 93.2736 135.094 91.659C135.094 90.0445 134.018 88.7197 132.652 88.7197C131.285 88.7197 130.209 90.0445 130.209 91.659Z" fill="#3F3832"/>
<path d="M90.8387 88.9682C89.6795 87.602 87.651 86.1117 84.1735 87.8918C80.7373 89.672 81.3583 99.3179 84.1735 101.76C87.9821 105.072 90.7145 104.12 91.6666 101.76C92.6188 99.4421 91.7494 90.0446 90.8387 88.9682Z" fill="#F4BD98"/>
<path d="M146.561 88.9682C147.721 87.602 149.749 86.1117 153.227 87.8918C156.663 89.672 156.042 99.3179 153.227 101.76C149.418 105.072 146.686 104.12 145.733 101.76C144.781 99.4421 145.651 90.0446 146.561 88.9682Z" fill="#F4BD98"/>
<path opacity="0.5" d="M119.652 92.4457C120.894 92.4457 115.885 99.5249 116.878 105.114C117.168 106.728 120.273 106.273 121.184 106.356C122.095 106.438 120.894 107.059 119.942 107.142C119.031 107.225 116.464 107.101 116.092 106.066C114.974 103.168 118.7 92.4457 119.652 92.4457Z" fill="#DD7F50"/>
<path d="M101.271 85.9047C102.596 85.3665 106.032 84.9111 107.315 85.0353C108.599 85.2009 109.137 85.0353 108.888 84.166C108.64 83.2966 107.522 83.5036 106.032 83.5864C104.541 83.6692 102.513 84.4972 101.271 85.0353C100.029 85.6149 100.609 86.1945 101.271 85.9047Z" fill="#3F3832"/>
<path d="M136.129 85.9047C134.804 85.3665 131.368 84.9111 130.085 85.0353C128.801 85.2009 128.263 85.0353 128.512 84.166C128.76 83.2966 129.878 83.5036 131.368 83.5864C132.859 83.6692 134.887 84.4972 136.129 85.0353C137.371 85.6149 136.791 86.1945 136.129 85.9047Z" fill="#3F3832"/>
<path opacity="0.25" d="M101.809 100.932C103.478 100.932 104.831 100.413 104.831 99.7733C104.831 99.1331 103.478 98.6141 101.809 98.6141C100.14 98.6141 98.7871 99.1331 98.7871 99.7733C98.7871 100.413 100.14 100.932 101.809 100.932Z" fill="#FF3B3B"/>
<path opacity="0.25" d="M135.756 100.932C137.425 100.932 138.778 100.413 138.778 99.7733C138.778 99.1331 137.425 98.6141 135.756 98.6141C134.087 98.6141 132.734 99.1331 132.734 99.7733C132.734 100.413 134.087 100.932 135.756 100.932Z" fill="#FF3B3B"/>
<path d="M184.4 193.252H53C53 193.252 59.127 172.511 65.6267 162.782C66.2476 161.872 66.8272 161.044 67.4068 160.381C68.98 158.518 72.2505 156.862 76.142 155.455C82.5588 153.136 90.673 151.48 95.351 150.652C97.7522 150.239 99.2425 149.99 99.2425 149.99C99.2425 149.99 109.965 156.531 118.659 156.366C130.54 156.159 138.075 149.99 138.075 149.99C138.075 149.99 139.11 150.156 140.848 150.446C147.762 151.646 165.522 155.124 169.952 160.381C176.741 168.413 184.4 193.252 184.4 193.252Z" fill="#E5BB67"/>
<path d="M114.105 113.187C115.264 113.601 119.362 114.47 122.136 113.394C124.91 112.359 122.591 114.097 121.35 114.47C120.066 114.843 118.327 115.257 116.382 114.636C114.436 114.056 113.567 112.98 114.105 113.187Z" fill="#3F3832"/>
<path d="M150.577 83.545C147.762 72.7812 133.19 62.1831 118.866 62.0589C104.252 61.9347 89.8864 72.5742 86.9885 83.545C86.9885 83.545 86.9057 87.3537 90.052 88.1816C93.1983 89.0096 96.6758 80.7712 97.7522 77.7905C98.7872 74.8098 106.363 71.1253 110.876 69.9247C115.057 68.807 118.327 68.7242 118.824 68.6828C119.321 68.6828 122.55 68.7656 126.773 69.9247C131.327 71.1667 138.861 74.8098 139.896 77.7905C140.931 80.7712 144.45 89.0096 147.596 88.1816C150.66 87.3537 150.577 83.545 150.577 83.545Z" fill="#3F3832"/>
<path d="M147.514 103.83C147.141 103.955 141.263 113.021 136.584 117.74C136.336 117.989 136.005 118.279 135.715 118.527C135.467 114.387 131.865 112.152 128.76 110.785C125.655 109.378 118.866 109.543 118.866 109.543C118.866 109.543 112.035 109.378 108.971 110.785C105.866 112.193 102.265 114.387 102.016 118.527C101.685 118.279 101.395 118.03 101.147 117.74C96.4275 113.021 90.5903 103.955 90.2177 103.83C88.9343 103.458 89.1413 104.617 89.5139 106.728C89.5139 106.728 90.9629 117.782 93.8608 121.922C96.7587 126.103 109.468 134.59 118.866 134.797C128.263 134.631 140.973 126.103 143.871 121.922C146.769 117.74 148.218 106.728 148.218 106.728C148.59 104.617 148.797 103.499 147.514 103.83ZM109.303 122.418C106.736 120.266 107.026 115.174 108.061 114.015C110.42 111.282 118.866 110.827 118.866 110.827C118.866 110.827 127.311 111.282 129.671 114.015C130.706 115.215 130.996 120.266 128.429 122.418C123.627 124.323 118.907 125.399 118.907 125.399C118.907 125.399 114.105 124.323 109.303 122.418Z" fill="#3F3832"/>
<path d="M104.707 144.774C106.198 145.146 101.147 148.293 101.809 149.99C102.472 151.688 105.328 155.413 106.073 156.904C106.819 158.353 104.003 160.63 103.879 162.741C103.714 164.811 104.749 193.293 104.749 193.293H53C53 193.293 60.0378 167.212 67.4068 160.423C74.7758 153.633 97.8764 148.21 97.8764 148.21C97.8764 148.21 101.602 143.946 104.707 144.774Z" fill="#3F3832"/>
<path d="M97.1726 149.369C95.9306 149.99 93.1155 152.847 93.5295 153.882C93.9848 154.917 96.3446 162.079 97.5451 162.741C98.7457 163.403 101.685 161.458 102.223 161.168C102.761 160.878 103.134 163.983 103.507 163.528C103.838 163.031 102.844 161.292 102.472 160.754C102.099 160.216 99.0769 162.12 97.8763 162.327C96.6758 162.534 93.8192 154.337 93.9848 153.385C94.1504 152.391 97.1726 149.369 97.1726 149.369Z" fill="#756052"/>
<path d="M79.6195 178.638C80.6545 178.638 94.3575 178.473 95.1441 178.638C95.8893 178.804 95.9721 180.543 95.1441 180.915C94.3161 181.246 79.4125 181.495 79.1641 180.915C78.9157 180.336 78.5846 178.638 79.6195 178.638Z" fill="#756052"/>
<path d="M133.024 144.691C131.492 145.105 136.253 148.293 135.591 149.99C134.928 151.688 132.072 155.413 131.327 156.904C130.581 158.353 133.396 160.63 133.521 162.741C133.686 164.811 132.651 193.293 132.651 193.293H184.358C184.358 193.293 177.321 167.212 169.952 160.423C162.583 153.633 139.482 148.21 139.482 148.21C139.482 148.21 136.17 143.863 133.024 144.691Z" fill="#3F3832"/>
<path d="M140.227 149.369C141.469 149.99 144.284 152.847 143.87 153.882C143.415 154.917 141.055 162.079 139.855 162.741C138.654 163.403 135.715 161.458 135.177 161.168C134.638 160.878 134.266 163.983 133.893 163.528C133.562 163.031 134.556 161.292 134.928 160.754C135.301 160.216 138.323 162.12 139.523 162.327C140.724 162.534 143.581 154.337 143.415 153.385C143.249 152.391 140.227 149.369 140.227 149.369Z" fill="#756052"/>
<path d="M157.78 178.638C156.745 178.638 143.042 178.473 142.256 178.638C141.511 178.804 141.428 180.543 142.256 180.915C143.084 181.246 157.987 181.495 158.236 180.915C158.484 180.336 158.815 178.638 157.78 178.638Z" fill="#756052"/>
<path d="M136.17 167.668C136.559 167.668 136.874 167.352 136.874 166.964C136.874 166.575 136.559 166.26 136.17 166.26C135.781 166.26 135.466 166.575 135.466 166.964C135.466 167.352 135.781 167.668 136.17 167.668Z" fill="#756052"/>
<path d="M136.17 174.043C136.17 174.416 135.839 174.747 135.466 174.747C135.094 174.747 134.763 174.416 134.763 174.043C134.763 173.67 135.094 173.339 135.466 173.339C135.839 173.339 136.17 173.629 136.17 174.043Z" fill="#756052"/>
<path d="M135.425 182.654C135.814 182.654 136.129 182.339 136.129 181.95C136.129 181.561 135.814 181.246 135.425 181.246C135.036 181.246 134.721 181.561 134.721 181.95C134.721 182.339 135.036 182.654 135.425 182.654Z" fill="#756052"/>
<path d="M136.17 190.603C136.559 190.603 136.874 190.288 136.874 189.899C136.874 189.51 136.559 189.195 136.17 189.195C135.781 189.195 135.466 189.51 135.466 189.899C135.466 190.288 135.781 190.603 136.17 190.603Z" fill="#756052"/>
</svg>
