<svg width="240" height="240" viewBox="0 0 240 240" fill="none" xmlns="http://www.w3.org/2000/svg">
<path d="M157 159.84H83C83 159.84 104.84 147.8 106.36 143.92C107 142.32 107.44 138.52 107.68 134.64C107.72 134.24 107.72 133.84 107.76 133.44C108.08 128.56 108.16 123.96 108.16 123.96H131.8C131.8 123.96 131.88 128.56 132.2 133.44C132.24 133.84 132.24 134.24 132.28 134.64C132.56 138.52 133 142.32 133.6 143.92C135.16 147.8 157 159.84 157 159.84Z" fill="#FFDDCA"/>
<g opacity="0.25">
<path opacity="0.25" d="M132.28 134.64C127.84 136.68 123.48 137.8 120 137.8C116.48 137.8 112.12 136.68 107.72 134.64C107.76 134.24 107.76 133.84 107.8 133.44C108.12 128.56 108.2 123.96 108.2 123.96H131.84C131.84 123.96 131.92 128.56 132.24 133.44C132.24 133.84 132.28 134.24 132.28 134.64Z" fill="#DD7F50"/>
</g>
<path d="M87.5198 103.36C87.7198 103.24 84.8798 86.8001 85.7198 75.6801C86.5198 64.5201 89.9598 62.48 93.4398 60.68C96.8798 58.84 99.3198 60.68 99.3198 60.68C99.3198 60.68 101.96 53.8 109.88 50.12C117.8 46.48 136.44 50.92 142.52 55C148.6 59.04 153.68 70.1601 154.16 74.8401C155.76 90.3601 151.04 101.24 151.04 101.24L87.5198 103.36Z" fill="#3F3832"/>
<path d="M146.92 81.7601C139.92 68.6001 120 68.6001 120 68.6001C120 68.6001 100.08 68.6001 93.08 81.7601C89.56 88.4001 90.6 115.64 97.6 122.36C104.6 129.08 113.76 133.12 120 133.12C126.24 133.12 135.4 129.08 142.4 122.36C149.4 115.64 150.44 88.3601 146.92 81.7601Z" fill="#FFDDCA"/>
<path d="M104.2 92.1201C104.2 93.7201 105.28 95.0001 106.6 95.0001C107.92 95.0001 109 93.7201 109 92.1201C109 90.5201 107.92 89.2401 106.6 89.2401C105.24 89.2401 104.2 90.5201 104.2 92.1201Z" fill="#3F3832"/>
<path d="M131.24 92.1201C131.24 93.7201 132.32 95.0001 133.64 95.0001C134.96 95.0001 136.04 93.7201 136.04 92.1201C136.04 90.5201 134.96 89.2401 133.64 89.2401C132.28 89.2401 131.24 90.5201 131.24 92.1201Z" fill="#3F3832"/>
<path d="M92.8398 89.5201C91.7198 88.2001 89.7198 86.7601 86.3598 88.4801C82.9998 90.2001 83.5998 99.6001 86.3598 102.04C90.0798 105.28 92.7198 104.36 93.6398 102.04C94.5598 99.7201 93.7198 90.5601 92.8398 89.5201Z" fill="#FFDDCA"/>
<path d="M147.16 89.5201C148.28 88.2001 150.28 86.7601 153.64 88.4801C157 90.2001 156.4 99.6001 153.64 102.04C149.92 105.28 147.28 104.36 146.36 102.04C145.44 99.7201 146.28 90.5601 147.16 89.5201Z" fill="#FFDDCA"/>
<path d="M88.0801 85.3601L91.4801 88.3201C91.4801 88.3201 104.92 81.3601 106.96 73.2801C106.96 73.2801 128.08 93.8401 148.52 88.3201C148.52 88.3201 150 81.4801 147.4 77.9601C144.8 74.4401 129.56 67.5601 120.6 66.3601C111.64 65.1601 97.8401 71.9201 95.2001 74.8401C92.5601 77.7201 88.0801 85.3601 88.0801 85.3601Z" fill="#3F3832"/>
<path opacity="0.5" d="M120.92 92.88C122.12 92.88 117.24 99.76 118.2 105.24C118.48 106.8 121.52 106.36 122.4 106.44C123.32 106.52 122.08 107.12 121.2 107.2C120.28 107.28 117.8 107.16 117.44 106.16C116.4 103.36 120 92.88 120.92 92.88Z" fill="#DD7F50"/>
<path d="M127.28 111.84C127.28 111.84 122.48 116.44 118.88 116.16C118.88 116.16 125.36 117.04 127.28 111.84Z" fill="#3F3832"/>
<path d="M102.96 86.52C104.24 86 107.6 85.52 108.84 85.68C110.08 85.84 110.6 85.68 110.4 84.84C110.16 84 109.04 84.2 107.6 84.28C106.16 84.36 104.16 85.16 102.96 85.68C101.76 86.24 102.36 86.8 102.96 86.52Z" fill="#3F3832"/>
<path opacity="0.25" d="M106.44 100.08C106.44 100.72 105.12 101.2 103.52 101.2C101.92 101.2 100.6 100.68 100.6 100.08C100.6 99.4401 101.92 98.9601 103.52 98.9601C105.16 98.9601 106.44 99.4401 106.44 100.08Z" fill="#FF3B3B"/>
<path opacity="0.25" d="M139.56 100.08C139.56 100.72 138.24 101.2 136.64 101.2C135.04 101.2 133.72 100.68 133.72 100.08C133.72 99.4401 135.04 98.9601 136.64 98.9601C138.24 98.9601 139.56 99.4401 139.56 100.08Z" fill="#FF3B3B"/>
<path d="M184.08 191.24H55.9199C55.9199 191.24 61.9199 171 68.2399 161.52C68.8399 160.64 69.3999 159.84 69.9599 159.16C71.4799 157.32 74.6799 155.72 78.4799 154.36C84.7599 152.08 92.6399 150.48 97.2399 149.68C99.5599 149.28 101.04 149.04 101.04 149.04C101.04 149.04 111.52 155.4 119.96 155.24C131.56 155.04 138.88 149.04 138.88 149.04C138.88 149.04 139.92 149.2 141.6 149.48C148.36 150.64 165.68 154.08 169.96 159.16C176.64 167 184.08 191.24 184.08 191.24Z" fill="#4D628C"/>
<path d="M138.96 174.36C142.4 174.32 154.52 173.96 156.4 174.36C158.24 174.76 158.12 176.36 157 177.28C155.88 178.2 140.04 178.32 138.96 178.08C137.92 177.8 137.64 174.36 138.96 174.36Z" fill="#6981A8"/>
</svg>
