<svg width="240" height="240" viewBox="0 0 240 240" fill="none" xmlns="http://www.w3.org/2000/svg">
<path d="M94.1845 108.719C94.1845 108.719 86.0508 92.9322 84.1676 89.1258C82.2844 85.3594 86.6117 82.7951 86.6117 82.7951C86.6117 82.7951 79.119 80.0304 81.1224 74.9418C83.0857 69.8131 91.7404 67.8498 91.2595 65.6862C90.7787 63.5225 87.4131 56.8312 92.141 51.1416C96.869 45.452 109.25 51.1416 112.976 51.1416C116.703 51.1416 124.676 47.4153 131.407 47.0146C138.139 46.614 145.03 54.5073 142.867 62.9616C142.867 62.9616 146.914 60.9982 151.161 64.1235C155.448 67.2889 156.45 77.7465 152.884 89.5264C149.318 101.306 94.1845 108.719 94.1845 108.719Z" fill="#726358"/>
<path d="M157.251 161.408H83.1257C83.1257 161.408 105.003 149.348 106.525 145.461C107.166 143.858 107.607 140.052 107.847 136.165C107.888 135.765 107.888 135.364 107.928 134.963C108.248 130.075 108.328 125.467 108.328 125.467H132.008C132.008 125.467 132.088 130.075 132.409 134.963C132.449 135.364 132.449 135.765 132.489 136.165C132.77 140.052 133.21 143.858 133.811 145.461C135.374 149.348 157.251 161.408 157.251 161.408Z" fill="#FFDDCA"/>
<g opacity="0.25">
<path opacity="0.25" d="M132.489 136.165C128.042 138.209 123.674 139.331 120.188 139.331C116.663 139.331 112.295 138.209 107.888 136.165C107.928 135.765 107.928 135.364 107.968 134.963C108.288 130.075 108.369 125.467 108.369 125.467H132.049C132.049 125.467 132.129 130.075 132.449 134.963C132.449 135.364 132.489 135.765 132.489 136.165Z" fill="#DD7F50"/>
</g>
<path d="M147.154 83.1958C140.142 70.0136 120.189 70.0135 120.189 70.0135C120.189 70.0135 100.235 70.0136 93.223 83.1958C89.697 89.8471 90.7388 117.133 97.7506 123.864C104.762 130.596 113.938 134.643 120.189 134.643C126.439 134.643 135.615 130.596 142.626 123.864C149.638 117.133 150.68 89.8471 147.154 83.1958Z" fill="#FFDDCA"/>
<path d="M104.362 93.5733C104.362 95.1761 105.443 96.4582 106.766 96.4582C108.088 96.4582 109.17 95.1761 109.17 93.5733C109.17 91.9706 108.088 90.6885 106.766 90.6885C105.403 90.7285 104.362 92.0107 104.362 93.5733Z" fill="#3F3832"/>
<path d="M133.811 96.4582C135.139 96.4582 136.215 95.1666 136.215 93.5733C136.215 91.9801 135.139 90.6885 133.811 90.6885C132.484 90.6885 131.407 91.9801 131.407 93.5733C131.407 95.1666 132.484 96.4582 133.811 96.4582Z" fill="#3F3832"/>
<path d="M92.9824 90.969C91.8605 89.6468 89.8571 88.2043 86.4914 89.9272C83.1257 91.6501 83.7267 101.066 86.4914 103.51C90.2177 106.756 92.8622 105.834 93.7837 103.51C94.7053 101.186 93.8639 92.0108 92.9824 90.969Z" fill="#FFDDCA"/>
<path d="M147.394 90.9691C148.516 89.6469 150.52 88.2044 153.885 89.9274C157.251 91.6503 156.65 101.066 153.885 103.51C150.159 106.756 147.515 105.834 146.593 103.51C145.671 101.186 146.513 92.0109 147.394 90.9691Z" fill="#FFDDCA"/>
<path opacity="0.5" d="M121.11 94.3746C122.312 94.3746 117.424 101.266 118.385 106.756C118.666 108.318 121.711 107.877 122.593 107.958C123.514 108.038 122.272 108.639 121.39 108.719C120.469 108.799 117.985 108.679 117.624 107.677C116.582 104.832 120.188 94.3746 121.11 94.3746Z" fill="#DD7F50"/>
<path d="M103.16 87.9639C104.442 87.443 107.807 86.9622 109.05 87.1224C110.292 87.2827 110.813 87.1224 110.612 86.281C110.372 85.4396 109.25 85.6399 107.807 85.7201C106.365 85.8002 104.362 86.6016 103.16 87.1224C101.918 87.6834 102.519 88.2443 103.16 87.9639Z" fill="#3F3832"/>
<path d="M137.217 87.9639C135.935 87.443 132.569 86.9622 131.327 87.1224C130.085 87.2827 129.564 87.1224 129.765 86.281C129.965 85.4396 131.127 85.6399 132.569 85.7201C134.012 85.8002 136.015 86.6016 137.217 87.1224C138.419 87.6834 137.858 88.2443 137.217 87.9639Z" fill="#3F3832"/>
<path opacity="0.25" d="M106.605 101.547C106.605 102.188 105.283 102.669 103.681 102.669C102.078 102.669 100.756 102.148 100.756 101.547C100.756 100.906 102.078 100.425 103.681 100.425C105.283 100.425 106.605 100.906 106.605 101.547Z" fill="#FF3B3B"/>
<path opacity="0.25" d="M139.782 101.547C139.782 102.188 138.459 102.669 136.857 102.669C135.254 102.669 133.932 102.148 133.932 101.547C133.932 100.906 135.254 100.425 136.857 100.425C138.459 100.425 139.782 100.906 139.782 101.547Z" fill="#FF3B3B"/>
<path d="M184.377 192.861H56C56 192.861 57.0418 189.335 58.7246 184.487C58.965 183.806 59.2054 183.084 59.4458 182.363C60.3273 179.919 61.329 177.235 62.4509 174.63C62.7314 173.909 63.0519 173.228 63.3324 172.507C64.5344 169.702 65.8967 167.017 67.2189 164.774C67.5796 164.173 67.9402 163.612 68.2607 163.091C68.3408 162.93 68.461 162.81 68.5412 162.69C69.0621 161.969 69.5429 161.328 70.0237 160.727C71.5463 158.884 74.7517 157.281 78.5581 155.919C84.8487 153.635 92.7421 152.032 97.3498 151.231C99.6738 150.83 101.156 150.59 101.156 150.59C101.156 150.59 111.654 156.96 120.148 156.8C131.768 156.6 139.14 150.59 139.14 150.59C139.14 150.59 140.182 150.75 141.865 151.03C148.636 152.192 165.986 155.638 170.273 160.727C170.754 161.288 171.235 161.929 171.715 162.69C172.156 163.331 172.597 164.052 172.998 164.814C174.32 167.097 175.602 169.742 176.844 172.547C177.125 173.228 177.445 173.949 177.726 174.67C178.847 177.315 179.849 179.959 180.771 182.403C181.011 183.125 181.292 183.806 181.532 184.527C183.295 189.335 184.377 192.861 184.377 192.861Z" fill="#AFADAA"/>
<path d="M115.701 114.609C116.823 115.01 120.869 115.851 123.554 114.849C126.239 113.848 124.035 115.53 122.793 115.891C121.551 116.252 119.828 116.652 117.944 116.051C116.021 115.49 115.18 114.449 115.701 114.609Z" fill="#3F3832"/>
<path d="M90.2578 84.8385C90.2578 84.8385 89.0557 88.044 91.6201 89.7669C94.1844 91.4898 98.2312 89.246 98.8723 85.6399C99.5134 82.0739 99.3531 77.2257 102.438 77.8267C105.524 78.4678 111.333 79.6297 117.945 77.8267C124.556 76.0237 130.726 73.9001 130.726 73.9001C130.726 73.9001 145.511 92.211 148.757 89.7268C152.002 87.2426 150.239 76.0237 142.426 72.097C134.613 68.2105 107.847 62.04 107.847 62.04L90.2578 84.8385Z" fill="#726358"/>
<path d="M104.362 104.271C100.836 104.271 97.1897 103.831 95.9476 103.029C94.4651 102.068 93.3432 96.7387 93.824 93.0525C94.1044 90.8889 94.9459 89.5266 96.188 89.0858C98.3116 88.4047 111.334 88.3646 114.539 89.2461C115.34 89.4865 115.941 89.9673 116.342 90.7286C117.664 93.3731 115.861 98.1812 115.861 98.2613L115.821 98.4216C115.34 99.7438 114.419 102.188 111.213 103.43C109.771 104.031 107.126 104.271 104.362 104.271ZM96.4684 89.8872C95.2664 90.2879 94.8257 91.8906 94.6654 93.1727C94.1846 96.9391 95.4267 101.707 96.4284 102.388C98.2314 103.55 107.768 103.991 110.893 102.709C113.778 101.587 114.579 99.4233 115.06 98.1411L115.1 97.9808C115.581 96.7388 116.622 93.0525 115.621 91.1293C115.34 90.5683 114.9 90.2077 114.339 90.0474C111.093 89.166 98.2715 89.2862 96.4684 89.8872Z" fill="#3F3832"/>
<path d="M135.935 104.271C133.21 104.271 130.526 103.991 129.123 103.47C125.918 102.228 124.996 99.7437 124.516 98.4615L124.436 98.3013C124.436 98.2612 122.592 93.413 123.955 90.7686C124.355 90.0073 124.956 89.4864 125.758 89.286C129.003 88.4046 141.985 88.4046 144.109 89.1258C145.351 89.5265 146.192 90.8888 146.473 93.0925C146.954 96.7787 145.832 102.108 144.349 103.069C143.107 103.871 139.461 104.271 135.935 104.271ZM135.654 89.4063C131.728 89.4063 127.561 89.6066 125.918 90.0473C125.317 90.2076 124.916 90.5682 124.636 91.1292C123.674 93.0524 124.676 96.7386 125.157 97.9807L125.237 98.141C125.718 99.4232 126.519 101.547 129.404 102.709C132.569 103.951 142.105 103.55 143.868 102.388C144.87 101.747 146.112 96.939 145.631 93.1726C145.471 91.8904 144.99 90.2877 143.828 89.8871C142.947 89.6066 139.421 89.4063 135.654 89.4063Z" fill="#3F3832"/>
<path d="M123.674 92.7319C120.429 90.8487 116.662 92.4113 116.622 92.4113L116.302 91.65C116.462 91.5699 120.469 89.9271 124.075 92.0106L123.674 92.7319Z" fill="#3F3832"/>
<path d="M149.424 88.3832L145.132 90.3676L145.469 91.0949L149.76 89.1106L149.424 88.3832Z" fill="#3F3832"/>
<path d="M91.4225 88.3846L91.0859 89.1118L95.3766 91.0976L95.7132 90.3703L91.4225 88.3846Z" fill="#3F3832"/>
<path d="M109.01 160.526L114.258 160.727C114.258 160.727 112.095 173.308 112.455 175.752C112.776 178.196 115.541 192.901 115.541 192.901H56C56 192.901 63.0118 171.345 66.4577 164.213C69.9035 157.081 82.4847 153.475 86.9322 152.192C91.3397 150.87 101.677 149.428 101.677 149.428L109.01 160.526Z" fill="#585D7F"/>
<path d="M106.525 145.501C106.525 145.501 105.484 151.752 107.527 153.795C109.571 155.839 114.258 160.687 114.258 160.687C114.258 160.687 107.848 167.017 105.123 166.016C102.398 165.054 97.9509 153.515 97.9509 151.511C97.9509 149.508 106.525 145.501 106.525 145.501Z" fill="#686E8E"/>
<path d="M131.367 160.526L126.118 160.727C126.118 160.727 128.282 173.308 127.921 175.752C127.601 178.196 124.836 192.901 124.836 192.901H184.377C184.377 192.901 177.365 171.345 173.919 164.213C170.473 157.081 157.892 153.475 153.444 152.192C149.037 150.87 138.7 149.428 138.7 149.428L131.367 160.526Z" fill="#585D7F"/>
<path d="M133.851 145.501C133.851 145.501 134.893 151.752 132.85 153.795C130.806 155.839 126.118 160.687 126.118 160.687C126.118 160.687 132.529 167.017 135.254 166.016C137.978 165.054 142.426 153.515 142.426 151.511C142.426 149.508 133.851 145.501 133.851 145.501Z" fill="#686E8E"/>
</svg>
