<svg width="240" height="240" viewBox="0 0 240 240" fill="none" xmlns="http://www.w3.org/2000/svg">
<g clip-path="url(#clip0)">
<path d="M91.5423 86.7241C91.5423 86.7241 88.4176 69.778 91.5423 64.8883C94.667 59.9986 98.3911 62.0223 98.3911 62.0223C98.3911 62.0223 98.7514 56.2838 105.839 52.0022C112.927 47.7205 141.155 46.6184 148.724 58.336C152.796 64.6254 149.866 89.1183 149.234 90.1918C148.603 91.2654 94.3067 90.8981 91.5423 86.7241Z" fill="#875D45"/>
<path d="M164.039 149.153L120.64 155.69L74.9878 149.495C74.9878 149.495 78.2655 138.744 82.2352 137.119C86.2048 135.494 108.763 131.419 108.763 131.419L109.009 124.347L109.328 115.461H131.966L132.285 124.217L132.533 131.419C132.533 131.419 154.075 134.316 158.041 135.931C162.007 137.547 164.039 149.153 164.039 149.153Z" fill="#FFDDCA"/>
<path opacity="0.25" d="M132.256 124.23C128.031 126.447 123.806 127.796 120.497 127.796C117.261 127.796 113.163 126.497 109.018 124.36L109.337 115.473H131.975L132.256 124.23Z" fill="#DD7F50"/>
<path d="M144.669 75.0952C141.161 63.0959 127.55 60.6542 120.5 60.6542C113.45 60.6542 99.8388 63.0959 96.3315 75.0952C94.2207 82.3063 92.5532 107.914 99.1629 113.731C105.773 119.549 114.589 123.866 120.5 123.866C126.412 123.866 135.228 119.552 141.837 113.731C148.447 107.911 146.77 82.3063 144.669 75.0952Z" fill="#FFDDCA"/>
<path d="M106.694 92.7412C107.964 92.7412 108.993 91.5176 108.993 90.0082C108.993 88.4988 107.964 87.2751 106.694 87.2751C105.424 87.2751 104.395 88.4988 104.395 90.0082C104.395 91.5176 105.424 92.7412 106.694 92.7412Z" fill="#111111"/>
<path d="M102.514 84.2919C103.509 84.1399 103.359 83.478 106.809 83.2469C108.259 83.1487 109.627 83.5889 109.784 83.2469C109.852 83.0638 109.856 82.8633 109.795 82.6777C109.734 82.4921 109.612 82.3322 109.449 82.224C109.146 82.0973 106.276 82.0909 104.768 82.433C103.26 82.775 101.953 84.3774 102.514 84.2919Z" fill="#111111"/>
<path d="M134.306 92.7412C135.576 92.7412 136.605 91.5176 136.605 90.0082C136.605 88.4988 135.576 87.2751 134.306 87.2751C133.036 87.2751 132.007 88.4988 132.007 90.0082C132.007 91.5176 133.036 92.7412 134.306 92.7412Z" fill="#111111"/>
<path d="M138.48 84.2919C137.485 84.1399 137.635 83.478 134.182 83.2469C132.731 83.1487 131.366 83.5889 131.21 83.2469C131.142 83.0638 131.138 82.8633 131.199 82.6777C131.259 82.4921 131.381 82.3322 131.545 82.224C131.848 82.0973 134.717 82.0909 136.225 82.433C137.734 82.775 139.044 84.3774 138.48 84.2919Z" fill="#111111"/>
<path d="M96.4143 86.3124C94.3801 84.3521 91.4116 84.5801 89.2562 85.9007C87.1008 87.2213 87.2826 92.7381 89.0585 94.6034C90.8345 96.4687 94.6129 96.9722 96.1274 96.1076C97.6419 95.2431 96.9883 86.8634 96.4143 86.3124Z" fill="#FFDDCA"/>
<path d="M144.586 86.3124C146.62 84.3521 149.588 84.5801 151.744 85.9007C153.899 87.2213 153.717 92.738 151.929 94.6065C150.14 96.475 146.374 96.9754 144.86 96.1108C143.345 95.2462 144.012 86.8634 144.586 86.3124Z" fill="#FFDDCA"/>
<path d="M104.873 97.6151C102.779 97.6151 100.7 97.3775 99.7368 96.6112C96.6918 94.1885 97.3868 89.5806 97.6706 88.2252C97.7854 87.6868 98.4135 84.9791 99.6124 84.6593C101.822 84.0671 111.987 83.3228 114.652 84.7036C116.422 85.622 115.969 90.6986 115.647 91.8418L115.603 92.0097C115.284 93.1687 114.573 95.8828 110.578 97.0767C109.962 97.2667 107.408 97.6151 104.873 97.6151ZM99.9376 85.7835C99.6188 85.9735 98.8153 87.5665 98.6144 89.8847C98.4837 91.3984 98.5506 94.1695 100.47 95.6991C102.042 96.9469 108.935 96.3515 110.236 95.9619C113.603 94.9517 114.187 92.7634 114.467 91.7088L114.515 91.5314C114.939 90.0018 114.866 86.1477 114.11 85.7423C111.939 84.6149 102.208 85.1881 99.9376 85.7835Z" fill="#775843"/>
<path d="M136.127 97.6151C133.576 97.6151 131.025 97.2667 130.423 97.0799C126.424 95.8828 125.704 93.1688 125.394 92.0128L125.35 91.8482C125.031 90.7049 124.578 85.6284 126.345 84.71C129.013 83.3292 139.175 84.0766 141.388 84.6656C142.587 84.9823 143.215 87.6932 143.326 88.2316C143.613 89.587 144.308 94.1948 141.263 96.6175C140.301 97.3776 138.218 97.6151 136.127 97.6151ZM132.47 85.1027C130.021 85.1027 127.795 85.2768 126.89 85.736C126.134 86.1256 126.061 89.9955 126.485 91.5251L126.533 91.7025C126.813 92.7539 127.397 94.9454 130.764 95.9556C132.065 96.3452 138.958 96.9405 140.53 95.6928C142.443 94.1632 142.516 91.3921 142.386 89.8783C142.185 87.5602 141.375 85.9672 141.063 85.7772C139.755 85.4352 135.884 85.1027 132.47 85.1027Z" fill="#775843"/>
<path d="M125.649 87.3923C119.4 85.7456 115.638 87.3417 115.599 87.3607L115.118 86.2934C115.287 86.2174 119.263 84.501 125.959 86.2618L125.649 87.3923Z" fill="#775843"/>
<path d="M95.5823 83.6037L94.8306 84.5027L98.2891 87.3556L99.0408 86.4566L95.5823 83.6037Z" fill="#775843"/>
<path d="M145.421 83.6038L141.964 86.4535L142.716 87.3527L146.173 84.503L145.421 83.6038Z" fill="#775843"/>
<path d="M93.7806 81.3499C93.7806 81.3499 93.0792 85.2294 95.547 85.4669C97.6036 85.6696 100.154 70.0283 100.167 69.1194C102.187 68.9347 104.181 68.5279 106.11 67.9064C109.28 66.8804 123.449 61.5885 132.76 65.6674C142.07 69.7464 141.748 72.3369 142.759 75.8015C143.559 78.5441 144.595 88.447 147.133 84.2857C149.671 80.1244 142.813 63.0009 136.143 60.6542C129.472 58.3076 108.154 58.9599 104.395 61.6676C100.636 64.3753 95.1485 70.3418 94.463 73.3282C93.7774 76.3146 93.7806 81.3499 93.7806 81.3499Z" fill="#875D45"/>
<path d="M161.36 137.357C156.335 133.651 134.335 131.219 134.335 131.219L132.014 131.998L120.506 138.807L108.999 131.998L106.678 131.219C106.678 131.219 84.6776 133.651 79.6462 137.353C73.9324 141.556 61 190 61 190H180C180 190 167.068 141.556 161.36 137.357Z" fill="#444444"/>
<path d="M122.005 143.636H120.519H119.033L113.928 190H120.519H127.11L122.005 143.636Z" fill="#9ECCC3"/>
<path d="M120.481 138.807L115.504 140.596C115.504 140.596 118.09 143.782 118.609 144.501C119.129 145.22 120.481 145.014 120.481 145.014C120.481 145.014 121.836 145.22 122.352 144.501C122.869 143.782 125.455 140.596 125.455 140.596L120.481 138.807Z" fill="#C6DBD7"/>
<path d="M108.785 128.622C109.669 128.686 120.034 138.348 120.5 138.807C120.965 139.266 113.09 142.715 111.697 142.541C110.303 142.367 104.841 135.89 104.102 134.421C103.362 132.951 106.758 128.489 108.785 128.622Z" fill="#727272"/>
<path d="M132.214 128.622C131.331 128.686 120.966 138.348 120.5 138.807C120.035 139.266 127.91 142.715 129.31 142.541C130.71 142.367 136.165 135.89 136.905 134.421C137.644 132.951 134.242 128.489 132.214 128.622Z" fill="#727272"/>
<path d="M119.588 109.231C118.887 108.858 123.367 108.113 124.103 106.92C124.84 105.726 124.549 108.101 123.048 108.756C121.546 109.412 120.417 109.678 119.588 109.231Z" fill="#111111"/>
<g opacity="0.5">
<path opacity="0.5" d="M120.494 92.738C119.489 92.738 116.801 93.9225 116.884 95.2241C116.967 96.5257 118.638 99.6071 120.494 99.6071C122.576 99.6071 124.02 96.5288 124.103 95.2241C124.186 93.9193 121.498 92.738 120.494 92.738Z" fill="#DD7F50"/>
</g>
</g>
<defs>
<clipPath id="clip0">
<rect width="119" height="141" fill="white" transform="translate(61 49)"/>
</clipPath>
</defs>
</svg>
