<svg width="98" height="32" viewBox="0 0 98 32" fill="none" xmlns="http://www.w3.org/2000/svg">
<rect x="0.5" y="0.5" width="97" height="31" rx="15.5" stroke="url(#paint0_linear)"/>
<path d="M18.128 10.662V14.512H22.902V15.422H18.128V19.832H23.224V20.756H17.106V9.738H23.224V10.662H18.128ZM30.2248 20.756L27.9848 17.312L25.7308 20.756H24.6248L27.4388 16.682L24.6948 12.734H25.8848L28.0408 16.08L30.2388 12.734H31.3028L28.5868 16.696L31.3868 20.756H30.2248ZM36.031 12.58C36.7497 12.58 37.3377 12.7433 37.795 13.07C38.2524 13.3967 38.5464 13.8073 38.677 14.302L37.837 14.694C37.753 14.302 37.5617 13.994 37.263 13.77C36.9737 13.546 36.5724 13.434 36.059 13.434C35.5644 13.434 35.1304 13.5693 34.757 13.84C34.3837 14.1107 34.0944 14.498 33.889 15.002C33.6837 15.4967 33.581 16.08 33.581 16.752C33.581 17.4147 33.6837 17.998 33.889 18.502C34.0944 18.9967 34.3837 19.3793 34.757 19.65C35.1304 19.9207 35.5644 20.056 36.059 20.056C37.0577 20.056 37.6504 19.636 37.837 18.796L38.677 19.174C38.5557 19.678 38.2617 20.0933 37.795 20.42C37.3284 20.7467 36.7404 20.91 36.031 20.91C35.359 20.91 34.7617 20.7327 34.239 20.378C33.7257 20.0233 33.3244 19.5333 33.035 18.908C32.7457 18.2733 32.601 17.5547 32.601 16.752C32.601 15.94 32.7457 15.2213 33.035 14.596C33.3244 13.9613 33.7257 13.4667 34.239 13.112C34.7617 12.7573 35.359 12.58 36.031 12.58ZM46.7188 15.394V20.756H45.7668V15.548C45.7668 14.82 45.5988 14.288 45.2628 13.952C44.9362 13.6067 44.4368 13.434 43.7648 13.434C43.2608 13.434 42.8175 13.5553 42.4348 13.798C42.0522 14.0407 41.7535 14.3813 41.5388 14.82C41.3335 15.2587 41.2308 15.7673 41.2308 16.346V20.756H40.2648V9.276H41.2308V14.162C41.8002 13.1073 42.7335 12.58 44.0308 12.58C44.8802 12.58 45.5382 12.8273 46.0048 13.322C46.4808 13.8073 46.7188 14.498 46.7188 15.394ZM55.3208 18.852C55.3208 19.7013 55.3348 20.336 55.3628 20.756H54.5088C54.4714 20.448 54.4434 19.8927 54.4248 19.09C54.1728 19.6687 53.8134 20.1167 53.3468 20.434C52.8801 20.7513 52.3341 20.91 51.7088 20.91C51.0741 20.91 50.5094 20.7327 50.0148 20.378C49.5201 20.0327 49.1328 19.5473 48.8528 18.922C48.5821 18.2873 48.4468 17.564 48.4468 16.752C48.4468 15.94 48.5821 15.2167 48.8528 14.582C49.1328 13.9473 49.5201 13.4573 50.0148 13.112C50.5094 12.7573 51.0741 12.58 51.7088 12.58C52.3341 12.58 52.8801 12.7387 53.3468 13.056C53.8134 13.3733 54.1728 13.826 54.4248 14.414C54.4434 13.5833 54.4714 13.0233 54.5088 12.734H55.3628C55.3348 13.154 55.3208 13.784 55.3208 14.624V18.852ZM54.3548 16.752C54.3548 16.0893 54.2521 15.506 54.0468 15.002C53.8414 14.4887 53.5521 14.0967 53.1788 13.826C52.8054 13.546 52.3761 13.406 51.8908 13.406C51.4148 13.406 50.9901 13.546 50.6168 13.826C50.2434 14.106 49.9494 14.498 49.7348 15.002C49.5294 15.506 49.4268 16.0893 49.4268 16.752C49.4268 17.4053 49.5294 17.984 49.7348 18.488C49.9494 18.992 50.2434 19.384 50.6168 19.664C50.9901 19.944 51.4148 20.084 51.8908 20.084C52.3761 20.084 52.8008 19.944 53.1648 19.664C53.5381 19.384 53.8274 18.992 54.0328 18.488C54.2474 17.984 54.3548 17.4053 54.3548 16.752ZM63.8634 15.394V20.756H62.9114V15.548C62.9114 14.82 62.7434 14.288 62.4074 13.952C62.0807 13.6067 61.5814 13.434 60.9094 13.434C60.4054 13.434 59.962 13.5553 59.5794 13.798C59.1967 14.0407 58.898 14.3813 58.6834 14.82C58.478 15.2587 58.3754 15.7673 58.3754 16.346V20.756H57.4094V14.624C57.4094 13.924 57.3907 13.294 57.3534 12.734H58.1934C58.2307 12.9767 58.2634 13.5133 58.2914 14.344C58.562 13.756 58.94 13.3173 59.4254 13.028C59.92 12.7293 60.5034 12.58 61.1754 12.58C62.0247 12.58 62.6827 12.8273 63.1494 13.322C63.6254 13.8073 63.8634 14.498 63.8634 15.394ZM72.4653 12.734C72.4279 13.3127 72.4093 13.9427 72.4093 14.624V20.392C72.4093 21.512 72.1106 22.3753 71.5133 22.982C70.9253 23.598 70.0806 23.906 68.9793 23.906C68.1113 23.906 67.3879 23.7427 66.8093 23.416C66.2306 23.0987 65.8479 22.66 65.6613 22.1L66.4733 21.722C66.6133 22.1513 66.8933 22.4827 67.3133 22.716C67.7333 22.9493 68.2746 23.066 68.9373 23.066C69.7586 23.066 70.3839 22.842 70.8133 22.394C71.2426 21.9553 71.4573 21.3067 71.4573 20.448V19.174C71.1959 19.7153 70.8413 20.1307 70.3933 20.42C69.9453 20.7093 69.4226 20.854 68.8253 20.854C68.1999 20.854 67.6399 20.6813 67.1453 20.336C66.6599 19.9907 66.2773 19.5053 65.9973 18.88C65.7266 18.2547 65.5913 17.536 65.5913 16.724C65.5913 15.912 65.7266 15.1933 65.9973 14.568C66.2773 13.9333 66.6599 13.4433 67.1453 13.098C67.6399 12.7527 68.1999 12.58 68.8253 12.58C69.4413 12.58 69.9779 12.7387 70.4353 13.056C70.9019 13.364 71.2613 13.8073 71.5133 14.386C71.5506 13.574 71.5833 13.0233 71.6113 12.734H72.4653ZM71.4573 16.724C71.4573 16.0707 71.3546 15.492 71.1493 14.988C70.9439 14.484 70.6546 14.0967 70.2813 13.826C69.9173 13.546 69.4926 13.406 69.0073 13.406C68.5313 13.406 68.1066 13.546 67.7333 13.826C67.3693 14.0967 67.0846 14.484 66.8793 14.988C66.6739 15.492 66.5713 16.0707 66.5713 16.724C66.5713 17.368 66.6739 17.942 66.8793 18.446C67.0846 18.9407 67.3693 19.328 67.7333 19.608C68.1066 19.888 68.5313 20.028 69.0073 20.028C69.4833 20.028 69.9079 19.888 70.2813 19.608C70.6546 19.328 70.9439 18.9407 71.1493 18.446C71.3546 17.942 71.4573 17.368 71.4573 16.724ZM80.9106 16.892H75.1846C75.2032 17.9 75.4506 18.684 75.9266 19.244C76.4026 19.804 77.0466 20.084 77.8586 20.084C78.4092 20.084 78.8432 19.972 79.1606 19.748C79.4779 19.5147 79.7392 19.1413 79.9446 18.628L80.7566 19.006C80.2992 20.2753 79.3332 20.91 77.8586 20.91C77.1212 20.91 76.4772 20.7373 75.9266 20.392C75.3759 20.056 74.9512 19.5753 74.6526 18.95C74.3539 18.3247 74.2046 17.592 74.2046 16.752C74.2046 15.9307 74.3492 15.2073 74.6386 14.582C74.9279 13.9473 75.3292 13.4573 75.8426 13.112C76.3559 12.7573 76.9392 12.58 77.5926 12.58C78.2739 12.58 78.8619 12.748 79.3566 13.084C79.8606 13.42 80.2432 13.896 80.5046 14.512C80.7752 15.1187 80.9106 15.8373 80.9106 16.668V16.892ZM75.2126 16.094H79.9306C79.8559 15.226 79.6179 14.5633 79.2166 14.106C78.8246 13.6393 78.2832 13.406 77.5926 13.406C76.9579 13.406 76.4259 13.6487 75.9966 14.134C75.5672 14.6193 75.3059 15.2727 75.2126 16.094Z" fill="url(#paint1_linear)"/>
<defs>
<linearGradient id="paint0_linear" x1="0" y1="16" x2="98" y2="16" gradientUnits="userSpaceOnUse">
<stop stop-color="#E7446B"/>
<stop offset="1" stop-color="#FAE247"/>
</linearGradient>
<linearGradient id="paint1_linear" x1="49" y1="5" x2="49" y2="26" gradientUnits="userSpaceOnUse">
<stop stop-color="#E7446B"/>
<stop offset="1" stop-color="#FAE247"/>
</linearGradient>
</defs>
</svg>
