<svg width="154" height="31" viewBox="0 0 154 31" fill="none" xmlns="http://www.w3.org/2000/svg">
    <path d="M32.7479 21.0149V9.59092H35.1639V19.0149H39.8039V21.0149H32.7479ZM45.2027 12.1189C46.0134 12.1189 46.7067 12.2736 47.2827 12.5829C47.8694 12.8923 48.3227 13.3403 48.6427 13.9269C48.9627 14.5136 49.1227 15.2336 49.1227 16.0869V17.2389H43.4907C43.5121 17.9109 43.7094 18.4389 44.0827 18.8229C44.4667 19.2069 44.9947 19.3989 45.6667 19.3989C46.2321 19.3989 46.7441 19.3456 47.2027 19.2389C47.6614 19.1216 48.1361 18.9456 48.6267 18.7109V20.5509C48.2001 20.7643 47.7467 20.9189 47.2667 21.0149C46.7974 21.1216 46.2267 21.1749 45.5547 21.1749C44.6801 21.1749 43.9067 21.0149 43.2347 20.6949C42.5627 20.3643 42.0347 19.8683 41.6507 19.2069C41.2667 18.5456 41.0747 17.7136 41.0747 16.7109C41.0747 15.6869 41.2454 14.8389 41.5867 14.1669C41.9387 13.4843 42.4241 12.9723 43.0427 12.6309C43.6614 12.2896 44.3814 12.1189 45.2027 12.1189ZM45.2187 13.8149C44.7601 13.8149 44.3761 13.9643 44.0667 14.2629C43.7681 14.5616 43.5921 15.0256 43.5387 15.6549H46.8827C46.8827 15.3029 46.8187 14.9883 46.6907 14.7109C46.5734 14.4336 46.3921 14.2149 46.1467 14.0549C45.9014 13.8949 45.5921 13.8149 45.2187 13.8149ZM54.6399 12.1029C55.8132 12.1029 56.7092 12.3589 57.3279 12.8709C57.9572 13.3723 58.2719 14.1456 58.2719 15.1909V21.0149H56.6079L56.1439 19.8309H56.0799C55.8345 20.1403 55.5785 20.3963 55.3119 20.5989C55.0559 20.8016 54.7572 20.9456 54.4159 21.0309C54.0852 21.1269 53.6745 21.1749 53.1839 21.1749C52.6719 21.1749 52.2079 21.0789 51.7919 20.8869C51.3865 20.6843 51.0665 20.3803 50.8319 19.9749C50.5972 19.5589 50.4799 19.0363 50.4799 18.4069C50.4799 17.4789 50.8052 16.7963 51.4559 16.3589C52.1065 15.9109 53.0825 15.6656 54.3839 15.6229L55.9039 15.5749V15.1909C55.9039 14.7323 55.7812 14.3963 55.5359 14.1829C55.3012 13.9696 54.9705 13.8629 54.5439 13.8629C54.1172 13.8629 53.7012 13.9269 53.2959 14.0549C52.8905 14.1723 52.4852 14.3216 52.0799 14.5029L51.2959 12.8869C51.7652 12.6416 52.2825 12.4496 52.8479 12.3109C53.4239 12.1723 54.0212 12.1029 54.6399 12.1029ZM54.9759 16.9989C54.2079 17.0203 53.6745 17.1589 53.3759 17.4149C53.0772 17.6709 52.9279 18.0069 52.9279 18.4229C52.9279 18.7856 53.0345 19.0469 53.2479 19.2069C53.4612 19.3563 53.7385 19.4309 54.0799 19.4309C54.5919 19.4309 55.0239 19.2816 55.3759 18.9829C55.7279 18.6736 55.9039 18.2416 55.9039 17.6869V16.9669L54.9759 16.9989ZM65.5921 12.1189C65.7094 12.1189 65.8481 12.1243 66.0081 12.1349C66.1681 12.1456 66.2961 12.1616 66.3921 12.1829L66.2161 14.4229C66.1414 14.4016 66.0294 14.3856 65.8801 14.3749C65.7414 14.3536 65.6188 14.3429 65.5121 14.3429C65.2028 14.3429 64.9041 14.3856 64.6161 14.4709C64.3281 14.5456 64.0668 14.6683 63.8321 14.8389C63.6081 15.0096 63.4268 15.2389 63.2881 15.5269C63.1601 15.8043 63.0961 16.1509 63.0961 16.5669V21.0149H60.7121V12.2789H62.5201L62.8721 13.7509H62.9841C63.1548 13.4523 63.3681 13.1803 63.6241 12.9349C63.8801 12.6896 64.1734 12.4923 64.5041 12.3429C64.8454 12.1936 65.2081 12.1189 65.5921 12.1189ZM72.9377 12.1189C73.8764 12.1189 74.6284 12.3749 75.1937 12.8869C75.7591 13.3883 76.0417 14.1989 76.0417 15.3189V21.0149H73.6577V15.9109C73.6577 15.2816 73.5457 14.8123 73.3217 14.5029C73.0977 14.1829 72.7404 14.0229 72.2497 14.0229C71.5244 14.0229 71.0284 14.2736 70.7617 14.7749C70.4951 15.2656 70.3617 15.9749 70.3617 16.9029V21.0149H67.9777V12.2789H69.8017L70.1217 13.3989H70.2497C70.4417 13.1003 70.6764 12.8603 70.9537 12.6789C71.2311 12.4869 71.5404 12.3483 71.8817 12.2629C72.2231 12.1669 72.5751 12.1189 72.9377 12.1189ZM92.9056 12.1189C93.8976 12.1189 94.6443 12.3749 95.1456 12.8869C95.6576 13.3883 95.9136 14.1989 95.9136 15.3189V21.0149H93.5296V15.9109C93.5296 15.2816 93.4229 14.8123 93.2096 14.5029C92.9963 14.1829 92.6656 14.0229 92.2176 14.0229C91.5883 14.0229 91.1403 14.2469 90.8736 14.6949C90.6069 15.1429 90.4736 15.7883 90.4736 16.6309V21.0149H88.0896V15.9109C88.0896 15.4949 88.0416 15.1483 87.9456 14.8709C87.8496 14.5936 87.7056 14.3856 87.5136 14.2469C87.3216 14.0976 87.0763 14.0229 86.7776 14.0229C86.3403 14.0229 85.9936 14.1349 85.7376 14.3589C85.4816 14.5829 85.3003 14.9083 85.1936 15.3349C85.0869 15.7616 85.0336 16.2843 85.0336 16.9029V21.0149H82.6496V12.2789H84.4736L84.7936 13.3989H84.9216C85.1029 13.1003 85.3269 12.8603 85.5936 12.6789C85.8603 12.4869 86.1536 12.3483 86.4736 12.2629C86.8043 12.1669 87.1349 12.1189 87.4656 12.1189C88.1056 12.1189 88.6496 12.2256 89.0976 12.4389C89.5456 12.6416 89.8869 12.9616 90.1216 13.3989H90.3296C90.5963 12.9509 90.9643 12.6256 91.4336 12.4229C91.9136 12.2203 92.4043 12.1189 92.9056 12.1189ZM106.304 16.6309C106.304 17.3563 106.203 18.0016 106 18.5669C105.808 19.1323 105.526 19.6123 105.152 20.0069C104.79 20.3909 104.347 20.6843 103.824 20.8869C103.302 21.0789 102.71 21.1749 102.048 21.1749C101.44 21.1749 100.875 21.0789 100.352 20.8869C99.8404 20.6843 99.3977 20.3909 99.0244 20.0069C98.651 19.6123 98.3577 19.1323 98.1444 18.5669C97.9417 18.0016 97.8404 17.3563 97.8404 16.6309C97.8404 15.6603 98.011 14.8443 98.3524 14.1829C98.6937 13.5109 99.1844 12.9989 99.8244 12.6469C100.464 12.2949 101.222 12.1189 102.096 12.1189C102.918 12.1189 103.643 12.2949 104.272 12.6469C104.902 12.9989 105.398 13.5109 105.76 14.1829C106.123 14.8443 106.304 15.6603 106.304 16.6309ZM100.272 16.6309C100.272 17.2069 100.331 17.6923 100.448 18.0869C100.576 18.4709 100.774 18.7643 101.04 18.9669C101.307 19.1589 101.654 19.2549 102.08 19.2549C102.507 19.2549 102.848 19.1589 103.104 18.9669C103.371 18.7643 103.563 18.4709 103.68 18.0869C103.808 17.6923 103.872 17.2069 103.872 16.6309C103.872 16.0549 103.808 15.5749 103.68 15.1909C103.563 14.8069 103.371 14.5189 103.104 14.3269C102.838 14.1349 102.491 14.0389 102.064 14.0389C101.435 14.0389 100.976 14.2576 100.688 14.6949C100.411 15.1216 100.272 15.7669 100.272 16.6309ZM113.155 12.1189C113.272 12.1189 113.411 12.1243 113.571 12.1349C113.731 12.1456 113.859 12.1616 113.955 12.1829L113.779 14.4229C113.704 14.4016 113.592 14.3856 113.443 14.3749C113.304 14.3536 113.181 14.3429 113.075 14.3429C112.765 14.3429 112.467 14.3856 112.179 14.4709C111.891 14.5456 111.629 14.6683 111.395 14.8389C111.171 15.0096 110.989 15.2389 110.851 15.5269C110.723 15.8043 110.659 16.1509 110.659 16.5669V21.0149H108.275V12.2789H110.083L110.435 13.7509H110.547C110.717 13.4523 110.931 13.1803 111.187 12.9349C111.443 12.6896 111.736 12.4923 112.067 12.3429C112.408 12.1936 112.771 12.1189 113.155 12.1189ZM118.828 12.1189C119.638 12.1189 120.332 12.2736 120.908 12.5829C121.494 12.8923 121.948 13.3403 122.268 13.9269C122.588 14.5136 122.748 15.2336 122.748 16.0869V17.2389H117.116C117.137 17.9109 117.334 18.4389 117.708 18.8229C118.092 19.2069 118.62 19.3989 119.292 19.3989C119.857 19.3989 120.369 19.3456 120.828 19.2389C121.286 19.1216 121.761 18.9456 122.252 18.7109V20.5509C121.825 20.7643 121.372 20.9189 120.892 21.0149C120.422 21.1216 119.852 21.1749 119.18 21.1749C118.305 21.1749 117.532 21.0149 116.86 20.6949C116.188 20.3643 115.66 19.8683 115.276 19.2069C114.892 18.5456 114.7 17.7136 114.7 16.7109C114.7 15.6869 114.87 14.8389 115.212 14.1669C115.564 13.4843 116.049 12.9723 116.668 12.6309C117.286 12.2896 118.006 12.1189 118.828 12.1189ZM118.844 13.8149C118.385 13.8149 118.001 13.9643 117.692 14.2629C117.393 14.5616 117.217 15.0256 117.164 15.6549H120.508C120.508 15.3029 120.444 14.9883 120.316 14.7109C120.198 14.4336 120.017 14.2149 119.772 14.0549C119.526 13.8949 119.217 13.8149 118.844 13.8149Z" fill="url(#paint0_linear_72_179)"/>
    <path d="M15.4329 2.01492H138.433V-1.98508H15.4329V2.01492ZM138.433 28.0149H15.4329V32.0149H138.433V28.0149ZM15.4329 28.0149C8.25316 28.0149 2.43286 22.1946 2.43286 15.0149H-1.56714C-1.56714 24.4038 6.04402 32.0149 15.4329 32.0149V28.0149ZM151.433 15.0149C151.433 22.1946 145.613 28.0149 138.433 28.0149V32.0149C147.822 32.0149 155.433 24.4038 155.433 15.0149H151.433ZM138.433 2.01492C145.613 2.01492 151.433 7.83522 151.433 15.0149H155.433C155.433 5.62608 147.822 -1.98508 138.433 -1.98508V2.01492ZM15.4329 -1.98508C6.04402 -1.98508 -1.56714 5.62608 -1.56714 15.0149H2.43286C2.43286 7.83522 8.25316 2.01492 15.4329 2.01492V-1.98508Z" fill="url(#paint1_linear_72_179)"/>
    <defs>
        <linearGradient id="paint0_linear_72_179" x1="30.4329" y1="15.0149" x2="123.433" y2="15.0149" gradientUnits="userSpaceOnUse">
            <stop stop-color="#E7446B"/>
            <stop offset="1" stop-color="#FAE247"/>
        </linearGradient>
        <linearGradient id="paint1_linear_72_179" x1="0.432861" y1="15.0149" x2="153.433" y2="15.0149" gradientUnits="userSpaceOnUse">
            <stop stop-color="#E7446B"/>
            <stop offset="1" stop-color="#FAE247"/>
        </linearGradient>
    </defs>
</svg>
