<svg width="128" height="40" viewBox="0 0 128 40" fill="none" xmlns="http://www.w3.org/2000/svg">
<rect x="0.5" y="0.5" width="127" height="39" rx="18.5" stroke="url(#paint0_linear)"/>
<path d="M23.406 24.636V25.882H17.092V14.668H18.534V24.636H23.406ZM26.5184 15.914V19.372H31.2364V20.618H26.5184V24.636H31.5584V25.882H25.0764V14.668H31.5584V15.914H26.5184ZM39.6986 22.606H35.3026L34.2246 25.882H32.7686L36.7166 14.668H38.3826L42.3306 25.882H40.7766L39.6986 22.606ZM39.2926 21.36L37.5146 15.942L35.7226 21.36H39.2926ZM46.8751 21.234H45.1531V25.882H43.7111V14.668H47.9111C48.5551 14.668 49.1151 14.8033 49.5911 15.074C50.0765 15.3447 50.4498 15.7273 50.7111 16.222C50.9725 16.7167 51.1031 17.2907 51.1031 17.944C51.1031 18.8493 50.8651 19.5913 50.3891 20.17C49.9225 20.7487 49.2738 21.094 48.4431 21.206L51.8311 25.882H50.0811L46.8751 21.234ZM45.1531 20.044H47.6451C48.2985 20.044 48.7978 19.862 49.1431 19.498C49.4885 19.134 49.6611 18.616 49.6611 17.944C49.6611 17.2813 49.4885 16.768 49.1431 16.404C48.7978 16.0307 48.2985 15.844 47.6451 15.844H45.1531V20.044ZM61.5887 14.668V25.882H60.3847L54.3787 16.922V25.882H53.0627V14.668H54.6167L60.2867 23.166V14.668H61.5887ZM78.9147 25.882H77.4867V16.74L74.0707 25.882H72.6007L69.2127 16.782V25.882H67.8967V14.668H69.8287L73.3847 24.272L76.9407 14.668H78.9147V25.882ZM85.5974 26.05C84.6547 26.05 83.8194 25.8027 83.0914 25.308C82.3634 24.8227 81.7941 24.1413 81.3834 23.264C80.9821 22.3867 80.7814 21.3927 80.7814 20.282C80.7814 19.162 80.9821 18.1633 81.3834 17.286C81.7941 16.4087 82.3634 15.7273 83.0914 15.242C83.8194 14.7473 84.6547 14.5 85.5974 14.5C86.5401 14.5 87.3754 14.7473 88.1034 15.242C88.8407 15.7273 89.4101 16.4087 89.8114 17.286C90.2221 18.1633 90.4274 19.162 90.4274 20.282C90.4274 21.3927 90.2221 22.3867 89.8114 23.264C89.4101 24.1413 88.8407 24.8227 88.1034 25.308C87.3754 25.8027 86.5401 26.05 85.5974 26.05ZM85.5974 24.832C86.2601 24.832 86.8481 24.6407 87.3614 24.258C87.8747 23.8753 88.2714 23.3433 88.5514 22.662C88.8407 21.9713 88.9854 21.178 88.9854 20.282C88.9854 19.386 88.8407 18.5927 88.5514 17.902C88.2714 17.2113 87.8747 16.6747 87.3614 16.292C86.8481 15.9093 86.2601 15.718 85.5974 15.718C84.9347 15.718 84.3467 15.9093 83.8334 16.292C83.3294 16.6747 82.9327 17.2113 82.6434 17.902C82.3634 18.5927 82.2234 19.386 82.2234 20.282C82.2234 21.178 82.3634 21.9713 82.6434 22.662C82.9327 23.3433 83.3294 23.8753 83.8334 24.258C84.3467 24.6407 84.9347 24.832 85.5974 24.832ZM95.4376 21.234H93.7156V25.882H92.2736V14.668H96.4736C97.1176 14.668 97.6776 14.8033 98.1536 15.074C98.639 15.3447 99.0123 15.7273 99.2736 16.222C99.535 16.7167 99.6656 17.2907 99.6656 17.944C99.6656 18.8493 99.4276 19.5913 98.9516 20.17C98.485 20.7487 97.8363 21.094 97.0056 21.206L100.394 25.882H98.6436L95.4376 21.234ZM93.7156 20.044H96.2076C96.861 20.044 97.3603 19.862 97.7056 19.498C98.051 19.134 98.2236 18.616 98.2236 17.944C98.2236 17.2813 98.051 16.768 97.7056 16.404C97.3603 16.0307 96.861 15.844 96.2076 15.844H93.7156V20.044ZM103.067 15.914V19.372H107.785V20.618H103.067V24.636H108.107V25.882H101.625V14.668H108.107V15.914H103.067Z" fill="black"/>
<path d="M23.406 24.636V25.882H17.092V14.668H18.534V24.636H23.406ZM26.5184 15.914V19.372H31.2364V20.618H26.5184V24.636H31.5584V25.882H25.0764V14.668H31.5584V15.914H26.5184ZM39.6986 22.606H35.3026L34.2246 25.882H32.7686L36.7166 14.668H38.3826L42.3306 25.882H40.7766L39.6986 22.606ZM39.2926 21.36L37.5146 15.942L35.7226 21.36H39.2926ZM46.8751 21.234H45.1531V25.882H43.7111V14.668H47.9111C48.5551 14.668 49.1151 14.8033 49.5911 15.074C50.0765 15.3447 50.4498 15.7273 50.7111 16.222C50.9725 16.7167 51.1031 17.2907 51.1031 17.944C51.1031 18.8493 50.8651 19.5913 50.3891 20.17C49.9225 20.7487 49.2738 21.094 48.4431 21.206L51.8311 25.882H50.0811L46.8751 21.234ZM45.1531 20.044H47.6451C48.2985 20.044 48.7978 19.862 49.1431 19.498C49.4885 19.134 49.6611 18.616 49.6611 17.944C49.6611 17.2813 49.4885 16.768 49.1431 16.404C48.7978 16.0307 48.2985 15.844 47.6451 15.844H45.1531V20.044ZM61.5887 14.668V25.882H60.3847L54.3787 16.922V25.882H53.0627V14.668H54.6167L60.2867 23.166V14.668H61.5887ZM78.9147 25.882H77.4867V16.74L74.0707 25.882H72.6007L69.2127 16.782V25.882H67.8967V14.668H69.8287L73.3847 24.272L76.9407 14.668H78.9147V25.882ZM85.5974 26.05C84.6547 26.05 83.8194 25.8027 83.0914 25.308C82.3634 24.8227 81.7941 24.1413 81.3834 23.264C80.9821 22.3867 80.7814 21.3927 80.7814 20.282C80.7814 19.162 80.9821 18.1633 81.3834 17.286C81.7941 16.4087 82.3634 15.7273 83.0914 15.242C83.8194 14.7473 84.6547 14.5 85.5974 14.5C86.5401 14.5 87.3754 14.7473 88.1034 15.242C88.8407 15.7273 89.4101 16.4087 89.8114 17.286C90.2221 18.1633 90.4274 19.162 90.4274 20.282C90.4274 21.3927 90.2221 22.3867 89.8114 23.264C89.4101 24.1413 88.8407 24.8227 88.1034 25.308C87.3754 25.8027 86.5401 26.05 85.5974 26.05ZM85.5974 24.832C86.2601 24.832 86.8481 24.6407 87.3614 24.258C87.8747 23.8753 88.2714 23.3433 88.5514 22.662C88.8407 21.9713 88.9854 21.178 88.9854 20.282C88.9854 19.386 88.8407 18.5927 88.5514 17.902C88.2714 17.2113 87.8747 16.6747 87.3614 16.292C86.8481 15.9093 86.2601 15.718 85.5974 15.718C84.9347 15.718 84.3467 15.9093 83.8334 16.292C83.3294 16.6747 82.9327 17.2113 82.6434 17.902C82.3634 18.5927 82.2234 19.386 82.2234 20.282C82.2234 21.178 82.3634 21.9713 82.6434 22.662C82.9327 23.3433 83.3294 23.8753 83.8334 24.258C84.3467 24.6407 84.9347 24.832 85.5974 24.832ZM95.4376 21.234H93.7156V25.882H92.2736V14.668H96.4736C97.1176 14.668 97.6776 14.8033 98.1536 15.074C98.639 15.3447 99.0123 15.7273 99.2736 16.222C99.535 16.7167 99.6656 17.2907 99.6656 17.944C99.6656 18.8493 99.4276 19.5913 98.9516 20.17C98.485 20.7487 97.8363 21.094 97.0056 21.206L100.394 25.882H98.6436L95.4376 21.234ZM93.7156 20.044H96.2076C96.861 20.044 97.3603 19.862 97.7056 19.498C98.051 19.134 98.2236 18.616 98.2236 17.944C98.2236 17.2813 98.051 16.768 97.7056 16.404C97.3603 16.0307 96.861 15.844 96.2076 15.844H93.7156V20.044ZM103.067 15.914V19.372H107.785V20.618H103.067V24.636H108.107V25.882H101.625V14.668H108.107V15.914H103.067Z" fill="url(#paint1_linear)"/>
<defs>
<linearGradient id="paint0_linear" x1="0" y1="20" x2="128" y2="20" gradientUnits="userSpaceOnUse">
<stop stop-color="#E7446B"/>
<stop offset="1" stop-color="#FAE247"/>
</linearGradient>
<linearGradient id="paint1_linear" x1="16" y1="20.5" x2="110" y2="20.5" gradientUnits="userSpaceOnUse">
<stop stop-color="#E7446B"/>
<stop offset="1" stop-color="#FAE247"/>
</linearGradient>
</defs>
</svg>
