<svg width="657" height="586" viewBox="0 0 657 586" fill="none" xmlns="http://www.w3.org/2000/svg">
<g opacity="0.9" filter="url(#filter0_f)">
<path d="M109.978 306.405C97.1907 314.347 96.6657 332.767 108.98 341.424L309.108 482.116C316.171 487.081 325.553 487.218 332.757 482.461L547.391 340.73C559.981 332.417 559.958 313.937 547.349 305.654L346.588 173.786C339.751 169.295 330.929 169.183 323.98 173.498L109.978 306.405Z" fill="url(#paint0_linear)"/>
</g>
<path fill-rule="evenodd" clip-rule="evenodd" d="M328.953 205.893C329.483 206.234 330.091 206.405 330.738 206.405C331.661 206.405 332.662 206.064 333.702 205.423L334.997 204.61V206.213C334.997 208.433 335.703 210.098 336.979 210.909C337.509 211.251 338.117 211.421 338.765 211.421C339.687 211.421 340.688 211.101 341.747 210.439L343.023 209.638V211.229C343.023 213.449 343.729 215.114 345.005 215.925C345.535 216.267 346.143 216.438 346.791 216.438C347.693 216.438 348.714 216.117 349.754 215.477L351.049 214.663V216.246C351.049 218.487 351.756 220.152 353.031 220.963C353.561 221.283 354.169 221.454 354.817 221.454C355.72 221.454 356.72 221.134 357.78 220.493L359.075 219.68V221.283C359.075 223.524 359.782 225.189 361.057 226.001C361.587 226.321 362.196 226.492 362.843 226.492C363.746 226.492 364.747 226.15 365.787 225.51L367.082 224.695V226.321C367.082 228.541 367.788 230.206 369.064 231.017C369.594 231.337 370.202 231.508 370.85 231.508C371.772 231.508 372.773 231.166 373.813 230.547L375.108 229.734V231.337C375.108 233.557 375.814 235.222 377.09 236.033C377.62 236.353 378.228 236.524 378.876 236.524C379.798 236.524 380.799 236.183 381.839 235.542L383.134 234.728V236.332C383.134 238.552 383.841 240.217 385.116 241.028C385.646 241.37 386.254 241.54 386.902 241.54C387.824 241.54 388.825 241.22 389.865 240.558L391.16 239.745V241.348C391.16 243.568 391.867 245.233 393.142 246.044C393.672 246.386 394.281 246.557 394.928 246.557C395.831 246.557 396.851 246.236 397.891 245.575L399.187 244.761V246.364C399.187 248.584 399.893 250.249 401.169 251.061C401.698 251.402 402.307 251.573 402.954 251.573C403.857 251.573 404.858 251.253 405.917 250.591L407.193 249.79V251.402C407.193 253.622 407.9 255.287 409.175 256.098C409.705 256.44 410.313 256.61 410.961 256.61C411.883 256.61 412.884 256.269 413.924 255.65L415.219 254.836V256.44C415.219 258.66 415.926 260.325 417.201 261.136C417.731 261.456 418.339 261.627 418.987 261.627C419.909 261.627 420.91 261.285 421.95 260.687L423.245 259.874V261.435C423.245 263.676 423.952 265.341 425.227 266.152C425.757 266.472 426.365 266.643 427.013 266.643C427.935 266.643 428.936 266.323 429.976 265.661L431.271 264.847V266.472C431.271 268.692 431.978 270.357 433.253 271.168C433.783 271.488 434.392 271.659 435.039 271.659C435.942 271.659 436.962 271.339 438.002 270.699L439.298 269.885V271.488C439.298 273.708 440.004 275.373 441.28 276.185C441.81 276.505 442.418 276.675 443.065 276.675C443.968 276.675 444.969 276.355 446.029 275.715L447.304 274.914V276.483C447.304 278.703 448.011 280.368 449.286 281.179C449.816 281.521 450.424 281.692 451.072 281.692C451.994 281.692 452.995 281.371 454.035 280.71L455.33 279.896V281.521C455.33 283.741 456.037 285.406 457.312 286.217C457.842 286.558 458.45 286.729 459.098 286.729C460.02 286.729 461.021 286.388 462.061 285.747L463.357 284.881V286.537C463.357 288.757 464.063 290.422 465.339 291.233C465.868 291.575 466.477 291.746 467.124 291.746C468.047 291.746 469.047 291.404 470.088 290.764L471.383 289.95V291.553C471.383 293.795 472.089 295.46 473.365 296.271C473.895 296.591 474.503 296.762 475.15 296.762C476.053 296.762 477.074 296.442 478.114 295.801L479.409 294.988V296.57C479.409 298.811 480.115 300.476 481.391 301.287C481.921 301.607 482.529 301.778 483.177 301.778C484.079 301.778 485.08 301.458 486.14 300.796L506.764 287.839L506.45 287.263L485.826 300.22C484.256 301.202 482.784 301.372 481.705 300.689C480.606 300.006 480.017 298.555 480.017 296.57V294.605L498.738 282.844L498.424 282.268L480.017 293.832V291.169C480.017 288.949 479.311 287.284 478.035 286.473C477.834 286.347 477.624 286.245 477.405 286.166L490.712 277.807L490.398 277.231L476.478 285.975C475.5 285.911 474.409 286.237 473.286 286.943L471.991 287.756V286.174C471.991 283.933 471.285 282.268 470.009 281.457C469.717 281.274 469.405 281.141 469.076 281.057L566.315 216.046L566.001 215.47L468.054 280.954C467.182 280.989 466.233 281.315 465.26 281.926L463.965 282.74V281.137C463.965 278.917 463.258 277.252 461.983 276.441C461.775 276.311 461.558 276.206 461.331 276.126L474.66 267.753L474.346 267.177L460.394 275.941C459.424 275.886 458.344 276.212 457.234 276.91L455.939 277.724V276.099C455.939 273.879 455.232 272.214 453.957 271.403C453.766 271.284 453.567 271.186 453.361 271.109L466.653 262.758L466.339 262.182L452.448 270.909C451.457 270.83 450.349 271.156 449.208 271.873L447.912 272.686V271.061C447.912 268.842 447.206 267.177 445.93 266.365C445.746 266.25 445.555 266.155 445.356 266.079L458.627 257.742L458.313 257.165L444.452 265.873C443.459 265.787 442.345 266.112 441.182 266.835L439.906 267.636V266.067C439.906 263.847 439.2 262.182 437.924 261.371C437.723 261.245 437.513 261.143 437.294 261.064L450.601 252.704L450.287 252.128L436.367 260.873C435.388 260.809 434.297 261.135 433.175 261.84L431.88 262.653V261.05C431.88 258.83 431.173 257.165 429.898 256.354C429.71 256.237 429.514 256.14 429.311 256.063L442.575 247.731L442.261 247.154L428.401 255.861C427.407 255.779 426.295 256.104 425.149 256.824L423.854 257.637V256.034C423.854 253.814 423.147 252.149 421.872 251.338C421.677 251.216 421.474 251.117 421.263 251.039L434.549 242.693L434.235 242.117L420.345 250.842C419.359 250.769 418.257 251.095 417.123 251.808L415.828 252.621V251.061C415.828 248.819 415.121 247.154 413.846 246.343C413.635 246.211 413.415 246.106 413.185 246.025L426.542 237.634L426.228 237.058L412.244 245.843C411.277 245.791 410.202 246.118 409.097 246.813L407.801 247.626V246.023C407.801 243.782 407.095 242.117 405.819 241.305C405.616 241.178 405.402 241.075 405.18 240.995L418.516 232.618L418.202 232.041L404.249 240.807C403.274 240.746 402.188 241.073 401.07 241.775L399.795 242.576V240.943C399.795 238.723 399.088 237.058 397.813 236.247C397.618 236.125 397.415 236.025 397.205 235.947L410.49 227.602L410.176 227.025L396.287 235.751C395.306 235.679 394.209 236.004 393.064 236.716L391.769 237.529V235.926C391.769 233.706 391.062 232.041 389.787 231.23C389.592 231.109 389.389 231.009 389.178 230.931L402.464 222.585L402.15 222.009L388.26 230.735C387.274 230.662 386.172 230.987 385.038 231.7L383.743 232.513V230.91C383.743 228.69 383.036 227.025 381.76 226.214C381.573 226.096 381.377 225.999 381.174 225.923L394.438 217.59L394.124 217.014L380.264 225.721C379.276 225.64 378.168 225.965 377.012 226.684L375.716 227.497V225.894C375.716 223.674 375.01 222.009 373.734 221.198C373.539 221.076 373.335 220.976 373.123 220.898L386.431 212.531L386.117 211.955L372.195 220.701C371.212 220.632 370.115 220.958 368.985 221.667L367.69 222.481V220.899C367.69 218.679 366.984 217.014 365.708 216.203C365.511 216.079 365.305 215.979 365.091 215.901L378.405 207.536L378.091 206.96L364.169 215.706C363.186 215.637 362.088 215.963 360.959 216.672L359.684 217.473V215.861C359.684 213.641 358.977 211.976 357.702 211.165C357.507 211.044 357.304 210.944 357.093 210.866L370.379 202.52L370.065 201.944L356.175 210.67C355.189 210.597 354.087 210.922 352.953 211.635L351.657 212.448V210.866C351.657 208.625 350.951 206.96 349.675 206.149C349.478 206.026 349.272 205.925 349.058 205.847L362.372 197.483L362.058 196.906L348.136 205.653C347.153 205.583 346.056 205.909 344.926 206.619L343.631 207.432V205.85C343.631 203.609 342.925 201.944 341.649 201.133C341.448 201.007 341.238 200.905 341.019 200.826L354.326 192.466L354.012 191.89L340.092 200.635C339.114 200.571 338.023 200.897 336.9 201.602L335.625 202.403V200.791C335.625 198.571 334.918 196.906 333.643 196.095C332.348 195.284 330.66 195.455 328.894 196.565L327.579 197.39V195.775C327.579 193.555 326.873 191.89 325.597 191.079C324.302 190.268 322.614 190.438 320.848 191.548L316.531 194.259L316.845 194.836L321.162 192.125C322.732 191.143 324.204 190.972 325.283 191.655C326.382 192.338 326.971 193.79 326.971 195.775V197.772L324.577 199.276L324.871 199.852L326.971 198.533V201.197C326.971 203.417 327.677 205.082 328.953 205.893ZM471.383 288.138L468.969 289.654L469.283 290.23L471.383 288.911V289.176L469.774 290.187C468.204 291.169 466.732 291.34 465.653 290.657C464.554 289.974 463.965 288.522 463.965 286.537V284.475L468.234 281.621C468.771 281.624 469.264 281.761 469.695 282.033C470.794 282.716 471.383 284.168 471.383 286.153V288.138ZM471.991 288.529L473.6 287.519C474.14 287.181 474.668 286.94 475.172 286.796L471.991 288.794V288.529ZM476.62 286.66L471.991 289.568V291.575C471.991 293.56 472.58 295.011 473.679 295.694C474.758 296.378 476.23 296.207 477.8 295.225L479.409 294.214V291.169C479.409 289.184 478.82 287.732 477.721 287.049C477.388 286.839 477.019 286.709 476.62 286.66ZM465.574 282.503C465.859 282.324 466.141 282.173 466.418 282.048L463.965 283.688V283.513L465.574 282.503ZM460.943 284.637L463.357 283.122V281.137C463.357 279.152 462.768 277.7 461.669 277.017C461.328 276.801 460.948 276.671 460.539 276.624L455.939 279.514V281.521C455.939 283.506 456.527 284.958 457.626 285.641C458.706 286.324 460.177 286.153 461.747 285.171L463.357 284.095V283.895L461.257 285.214L460.943 284.637ZM455.33 278.106L452.917 279.621L453.231 280.198L455.33 278.879V279.122L453.721 280.133C452.151 281.115 450.679 281.286 449.6 280.603C448.501 279.92 447.912 278.468 447.912 276.483V274.531L452.586 271.596C452.967 271.649 453.322 271.777 453.643 271.979C454.742 272.662 455.33 274.114 455.33 276.099V278.106ZM455.939 278.497L457.548 277.487C458.064 277.164 458.57 276.928 459.055 276.782L455.939 278.74V278.497ZM449.522 272.449C450.095 272.09 450.656 271.84 451.189 271.7L447.912 273.758V273.459L449.522 272.449ZM444.89 274.584L447.304 273.068V271.061C447.304 269.076 446.715 267.625 445.616 266.942C445.304 266.744 444.958 266.618 444.587 266.562L439.906 269.503V271.488C439.906 273.474 440.495 274.925 441.594 275.608C442.673 276.291 444.145 276.12 445.715 275.139L447.304 274.14V273.841L445.204 275.16L444.89 274.584ZM439.298 268.018L436.864 269.546L437.178 270.122L439.298 268.791V269.111L437.688 270.122C436.119 271.104 434.647 271.275 433.567 270.592C432.468 269.909 431.88 268.457 431.88 266.472V264.465L436.509 261.557C436.907 261.607 437.277 261.736 437.61 261.947C438.709 262.63 439.298 264.081 439.298 266.067V268.018ZM439.906 268.409L441.495 267.411C442.09 267.04 442.669 266.784 443.219 266.648L439.906 268.729V268.409ZM433.489 262.416C434.028 262.079 434.556 261.837 435.061 261.693L431.88 263.692V263.427L433.489 262.416ZM428.858 264.551L431.271 263.035V261.05C431.271 259.065 430.683 257.614 429.584 256.931C429.267 256.73 428.916 256.603 428.538 256.549L423.854 259.492V261.435C423.854 263.42 424.442 264.871 425.541 265.554C426.621 266.237 428.092 266.067 429.662 265.085L431.271 264.074V263.809L429.172 265.127L428.858 264.551ZM423.245 258.019L420.832 259.535L421.146 260.111L423.245 258.793V259.1L421.636 260.111C420.066 261.093 418.594 261.264 417.515 260.581C416.416 259.898 415.828 258.446 415.828 256.461V254.454L420.484 251.528C420.872 251.581 421.233 251.709 421.558 251.914C422.657 252.597 423.245 254.049 423.245 256.034V258.019ZM423.854 258.411L425.463 257.4C426.045 257.036 426.614 256.783 427.154 256.644L423.854 258.718V258.411ZM417.437 252.384C417.998 252.033 418.547 251.785 419.07 251.644L415.828 253.68V253.394L417.437 252.384ZM412.805 254.519L415.219 253.003V251.039C415.219 249.054 414.63 247.602 413.532 246.919C413.188 246.702 412.804 246.571 412.389 246.525L407.801 249.407V251.423C407.801 253.408 408.39 254.86 409.489 255.543C410.568 256.226 412.04 256.055 413.61 255.073L415.219 254.063V253.776L413.119 255.095L412.805 254.519ZM407.193 248.008L404.779 249.524L405.093 250.1L407.193 248.781V249.016L405.604 250.015C404.034 250.996 402.562 251.167 401.483 250.484C400.384 249.801 399.795 248.35 399.795 246.364V244.379L404.392 241.491C404.795 241.539 405.169 241.669 405.505 241.882C406.604 242.565 407.193 244.016 407.193 246.002V248.008ZM407.801 248.399L409.411 247.389C409.917 247.072 410.414 246.839 410.891 246.693L407.801 248.634V248.399ZM401.384 242.351C401.914 242.02 402.433 241.781 402.929 241.636L399.795 243.605V243.35L401.384 242.351ZM396.753 244.486L399.187 242.958V240.943C399.187 238.957 398.598 237.506 397.499 236.823C397.174 236.617 396.814 236.489 396.426 236.437L391.769 239.363V241.348C391.769 243.333 392.357 244.785 393.456 245.468C394.536 246.151 396.007 245.98 397.577 244.998L399.187 243.987V243.732L397.067 245.062L396.753 244.486ZM391.16 237.911L388.747 239.427L389.061 240.003L391.16 238.685V238.971L389.551 239.982C387.981 240.964 386.509 241.135 385.43 240.452C384.331 239.769 383.743 238.317 383.743 236.332V234.346L388.399 231.421C388.787 231.473 389.148 231.601 389.473 231.807C390.572 232.49 391.16 233.941 391.16 235.926V237.911ZM391.769 238.303L393.378 237.293C393.939 236.941 394.488 236.694 395.011 236.552L391.769 238.589V238.303ZM385.352 232.276C385.913 231.925 386.462 231.678 386.984 231.536L383.743 233.573V233.287L385.352 232.276ZM380.72 234.411L383.134 232.895V230.91C383.134 228.925 382.545 227.473 381.447 226.79C381.129 226.59 380.778 226.463 380.401 226.408L375.716 229.351V231.316C375.716 233.301 376.305 234.752 377.404 235.435C378.483 236.118 379.955 235.948 381.525 234.966L383.134 233.955V233.669L381.034 234.987L380.72 234.411ZM375.108 227.879L372.694 229.395L373.008 229.971L375.108 228.652V228.96L373.499 229.971C371.929 230.953 370.457 231.124 369.378 230.44C368.279 229.757 367.69 228.306 367.69 226.321V224.313L372.343 221.388C372.733 221.439 373.094 221.568 373.42 221.774C374.519 222.457 375.108 223.909 375.108 225.894V227.879ZM375.716 228.27L377.326 227.26C377.908 226.896 378.476 226.643 379.017 226.504L375.716 228.578V228.27ZM369.299 222.244C369.851 221.898 370.392 221.653 370.907 221.511L367.69 223.531V223.254L369.299 222.244ZM364.668 224.378L367.082 222.863V220.899C367.082 218.914 366.493 217.462 365.394 216.779C365.066 216.572 364.702 216.443 364.309 216.392L359.684 219.298V221.262C359.684 223.247 360.272 224.698 361.371 225.382C362.451 226.065 363.922 225.894 365.492 224.912L367.082 223.913V223.636L364.982 224.955L364.668 224.378ZM359.075 217.855L356.642 219.383L356.956 219.96L359.075 218.629V218.906L357.466 219.917C355.896 220.899 354.424 221.07 353.345 220.387C352.246 219.704 351.657 218.252 351.657 216.267V214.281L356.314 211.356C356.702 211.408 357.063 211.536 357.388 211.742C358.487 212.425 359.075 213.876 359.075 215.861V217.855ZM359.684 218.247L361.273 217.249C361.825 216.903 362.365 216.658 362.881 216.516L359.684 218.524V218.247ZM353.267 212.211C353.828 211.86 354.376 211.613 354.899 211.471L351.657 213.508V213.222L353.267 212.211ZM348.635 214.346L351.049 212.83V210.845C351.049 208.86 350.46 207.408 349.362 206.725C349.033 206.518 348.669 206.389 348.276 206.338L343.631 209.256V211.251C343.631 213.236 344.22 214.687 345.319 215.37C346.398 216.053 347.87 215.883 349.44 214.901L351.049 213.89V213.604L348.949 214.922L348.635 214.346ZM343.023 207.814L340.609 209.33L340.923 209.906L343.023 208.587V208.865L341.433 209.863C339.864 210.845 338.392 211.016 337.312 210.333C336.213 209.65 335.625 208.198 335.625 206.213V204.215L340.234 201.32C340.633 201.369 341.003 201.499 341.335 201.709C342.434 202.392 343.023 203.844 343.023 205.829V207.814ZM343.631 208.205L345.24 207.195C345.793 206.85 346.333 206.605 346.848 206.462L343.631 208.482V208.205ZM337.214 202.179C337.754 201.841 338.282 201.6 338.786 201.455L335.625 203.442V203.177L337.214 202.179ZM334.997 203.836V203.571L332.897 204.89L332.583 204.313L334.997 202.798V200.791C334.997 198.806 334.408 197.355 333.309 196.671C332.23 195.988 330.758 196.159 329.188 197.141L327.579 198.152V201.197C327.579 203.182 328.168 204.633 329.267 205.317C330.346 206 331.818 205.829 333.388 204.847L334.997 203.836Z" fill="url(#paint1_linear)"/>
<path fill-rule="evenodd" clip-rule="evenodd" d="M294.905 205.018C295.945 205.679 296.945 205.999 297.868 205.999C298.515 205.999 299.124 205.829 299.653 205.466C300.929 204.655 301.635 202.968 301.635 200.748V198.149L303.735 199.468L304.049 198.891L301.635 197.376V195.348C301.635 193.363 302.244 191.911 303.323 191.228C304.402 190.545 305.874 190.716 307.444 191.698L311.761 194.409L312.075 193.832L307.758 191.121C305.972 190.011 304.285 189.841 303.009 190.652C301.734 191.463 301.027 193.149 301.027 195.369V196.994L299.732 196.18C297.946 195.07 296.259 194.9 294.983 195.711C293.707 196.501 293.001 198.187 293.001 200.407V201.989L291.706 201.175C290.564 200.465 289.462 200.14 288.482 200.209L274.594 191.484L274.28 192.061L287.562 200.405C287.352 200.483 287.15 200.583 286.957 200.706C285.681 201.496 284.975 203.182 284.975 205.402V206.993L283.699 206.192C282.55 205.477 281.442 205.152 280.458 205.227L266.568 196.501L266.254 197.077L279.544 205.426C279.337 205.503 279.139 205.602 278.95 205.722C277.675 206.512 276.968 208.198 276.968 210.418V212.021L275.673 211.208C274.524 210.494 273.416 210.168 272.432 210.243L258.542 201.517L258.228 202.093L271.517 210.442C271.311 210.519 271.113 210.618 270.924 210.738C269.649 211.528 268.942 213.214 268.942 215.434V217.046L267.667 216.245C266.53 215.539 265.432 215.213 264.456 215.279L250.535 206.533L250.221 207.109L263.532 215.472C263.319 215.55 263.113 215.652 262.918 215.776C261.642 216.566 260.936 218.252 260.936 220.472V222.087L259.621 221.262C258.491 220.559 257.4 220.233 256.428 220.294L242.509 211.549L242.195 212.126L255.499 220.484C255.281 220.563 255.071 220.665 254.872 220.792C253.596 221.582 252.89 223.268 252.89 225.488V227.1L251.614 226.299C250.484 225.597 249.393 225.271 248.421 225.331L234.502 216.587L234.188 217.163L247.492 225.521C247.274 225.6 247.065 225.703 246.865 225.83C245.59 226.62 244.883 228.306 244.883 230.526V232.107L243.588 231.294C242.439 230.58 241.331 230.255 240.347 230.329L226.457 221.603L226.143 222.18L239.432 230.529C239.226 230.606 239.028 230.704 238.839 230.825C237.564 231.636 236.857 233.322 236.857 235.542V237.145L235.562 236.332C234.432 235.629 233.341 235.303 232.369 235.364L218.45 226.62L218.136 227.196L231.44 235.554C231.222 235.633 231.012 235.735 230.813 235.862C229.538 236.652 228.831 238.338 228.831 240.558V242.14L227.536 241.327C226.394 240.617 225.292 240.291 224.312 240.361L210.424 231.636L210.11 232.212L223.392 240.557C223.182 240.634 222.98 240.735 222.787 240.857C221.511 241.647 220.805 243.333 220.805 245.553V247.156L219.51 246.343C218.368 245.633 217.266 245.307 216.286 245.377L202.398 236.652L202.084 237.228L215.366 245.573C215.156 245.651 214.954 245.751 214.761 245.873C213.485 246.663 212.779 248.349 212.779 250.569V252.194L211.484 251.381C210.353 250.678 209.263 250.352 208.291 250.413L194.371 241.668L194.057 242.245L207.362 250.602C207.143 250.681 206.934 250.784 206.735 250.911C205.459 251.701 204.753 253.387 204.753 255.607V257.198L203.477 256.397C202.34 255.69 201.243 255.364 200.266 255.43L186.345 246.684L186.031 247.261L199.343 255.623C199.129 255.702 198.924 255.803 198.728 255.927C197.453 256.717 196.746 258.403 196.746 260.623V262.226L195.451 261.413C194.302 260.699 193.194 260.374 192.21 260.448L178.319 251.722L178.005 252.298L191.295 260.647C191.089 260.725 190.891 260.823 190.702 260.943C189.426 261.733 188.72 263.42 188.72 265.64V267.243L187.425 266.429C186.283 265.72 185.181 265.394 184.201 265.463L170.313 256.738L169.999 257.315L183.281 265.659C183.071 265.737 182.868 265.837 182.676 265.96C181.4 266.771 180.694 268.457 180.694 270.677V272.259L179.399 271.446C178.256 270.736 177.154 270.41 176.175 270.48L162.286 261.755L161.972 262.331L175.255 270.675C175.044 270.753 174.842 270.853 174.65 270.976C173.374 271.787 172.668 273.473 172.668 275.693V277.296L171.372 276.483C170.242 275.781 169.151 275.454 168.179 275.515L154.26 266.771L153.946 267.347L167.25 275.705C167.032 275.784 166.823 275.887 166.623 276.014C165.348 276.803 164.641 278.49 164.641 280.71V282.313L163.346 281.499C162.216 280.797 161.125 280.471 160.153 280.531L146.234 271.787L145.92 272.363L159.224 280.721C159.006 280.8 158.797 280.903 158.597 281.03C157.322 281.82 156.615 283.506 156.615 285.726V287.317L155.34 286.516C154.191 285.802 153.082 285.476 152.098 285.551L138.208 276.825L137.894 277.401L151.184 285.75C150.978 285.827 150.78 285.926 150.591 286.046C149.315 286.836 148.609 288.522 148.609 290.742V293.417L130.182 281.841L129.868 282.417L148.609 294.191V296.164C148.609 298.149 148 299.601 146.921 300.284C145.842 300.967 144.37 300.796 142.8 299.814L122.175 286.857L121.861 287.434L142.486 300.39C143.526 301.052 144.527 301.372 145.449 301.372C146.097 301.372 146.685 301.202 147.235 300.86C148.511 300.07 149.217 298.384 149.217 296.164V294.573L150.493 295.374C151.533 296.036 152.533 296.356 153.456 296.356C154.123 296.356 154.712 296.185 155.242 295.844C156.517 295.054 157.224 293.368 157.224 291.148V289.544L158.519 290.358C159.559 291.02 160.56 291.34 161.482 291.34C162.13 291.34 162.738 291.169 163.268 290.828C164.543 290.038 165.25 288.351 165.25 286.131V284.507L166.545 285.32C167.585 285.982 168.586 286.302 169.508 286.302C170.156 286.302 170.764 286.153 171.294 285.79C172.569 284.979 173.276 283.292 173.276 281.072V279.491L174.571 280.304C175.611 280.966 176.612 281.286 177.534 281.286C178.182 281.286 178.79 281.115 179.32 280.774C180.596 279.963 181.302 278.276 181.302 276.056V274.474L182.597 275.288C183.637 275.95 184.638 276.27 185.56 276.27C186.208 276.27 186.816 276.099 187.346 275.757C188.622 274.968 189.328 273.281 189.328 271.061V269.458L190.623 270.272C191.663 270.933 192.664 271.253 193.587 271.253C194.234 271.253 194.823 271.083 195.372 270.741C196.648 269.951 197.354 268.265 197.354 266.045V264.454L198.63 265.255C199.67 265.917 200.671 266.237 201.593 266.237C202.241 266.237 202.849 266.066 203.379 265.725C204.654 264.935 205.361 263.249 205.361 261.029V259.404L206.656 260.218C207.696 260.879 208.697 261.2 209.619 261.2C210.267 261.2 210.875 261.05 211.405 260.687C212.681 259.898 213.387 258.211 213.387 255.991V254.388L214.682 255.201C215.722 255.863 216.723 256.183 217.645 256.183C218.293 256.183 218.901 256.034 219.431 255.671C220.707 254.881 221.413 253.195 221.413 250.975V249.371L222.708 250.185C223.748 250.847 224.769 251.167 225.672 251.167C226.319 251.167 226.928 250.996 227.457 250.676C228.733 249.865 229.439 248.179 229.439 245.959V244.355L230.735 245.169C231.775 245.831 232.775 246.151 233.698 246.151C234.345 246.151 234.934 245.98 235.483 245.639C236.759 244.827 237.465 243.141 237.465 240.921V239.339L238.761 240.153C239.781 240.814 240.802 241.135 241.704 241.135C242.371 241.135 242.96 240.964 243.51 240.622C244.785 239.833 245.492 238.146 245.492 235.926V234.335L246.767 235.136C247.807 235.798 248.808 236.118 249.73 236.118C250.378 236.118 250.986 235.948 251.516 235.606C252.792 234.816 253.498 233.13 253.498 230.91V229.294L254.813 230.12C255.833 230.782 256.854 231.102 257.757 231.102C258.404 231.102 259.013 230.931 259.562 230.59C260.838 229.8 261.544 228.114 261.544 225.894V224.281L262.82 225.083C263.86 225.744 264.86 226.065 265.783 226.065C266.43 226.065 267.039 225.915 267.569 225.552C268.844 224.762 269.551 223.076 269.551 220.856V219.253L270.846 220.066C271.886 220.728 272.887 221.048 273.809 221.048C274.457 221.048 275.065 220.877 275.595 220.536C276.87 219.746 277.577 218.06 277.577 215.84V214.249L278.852 215.05C279.892 215.712 280.893 216.032 281.815 216.032C282.483 216.032 283.071 215.861 283.601 215.52C284.877 214.73 285.583 213.044 285.583 210.824V209.22L286.878 210.034C287.918 210.696 288.939 211.016 289.842 211.016C290.489 211.016 291.098 210.845 291.627 210.525C292.903 209.714 293.609 208.027 293.609 205.807V204.204L294.905 205.018ZM149.217 293.799L150.807 294.798C152.376 295.78 153.848 295.951 154.928 295.267C156.007 294.584 156.615 293.133 156.615 291.148V289.162L151.962 286.239C151.58 286.292 151.225 286.42 150.905 286.622C149.825 287.305 149.217 288.757 149.217 290.742V293.799ZM153.359 286.343L156.615 288.389V288.09L155.026 287.092C154.452 286.733 153.892 286.483 153.359 286.343ZM157.224 288.472V288.771L158.833 289.782C160.403 290.764 161.874 290.934 162.954 290.251C164.033 289.568 164.641 288.117 164.641 286.131V284.124L160.013 281.217C159.614 281.266 159.244 281.396 158.911 281.606C157.832 282.289 157.224 283.741 157.224 285.726V287.699L159.657 289.227L159.343 289.803L157.224 288.472ZM167.349 284.787L165.25 283.468V283.733L166.859 284.744C168.429 285.726 169.901 285.897 170.98 285.214C172.059 284.53 172.668 283.079 172.668 281.094V279.108L168.039 276.2C167.64 276.25 167.27 276.379 166.937 276.59C165.858 277.273 165.25 278.725 165.25 280.71V282.695L167.663 284.21L167.349 284.787ZM163.032 282.076L164.641 283.086V283.351L161.461 281.353C161.965 281.497 162.493 281.738 163.032 282.076ZM169.487 276.336L172.668 278.335V278.07L171.058 277.06C170.519 276.722 169.991 276.48 169.487 276.336ZM173.276 278.452V278.717L174.885 279.728C176.455 280.71 177.927 280.88 179.006 280.197C180.085 279.514 180.694 278.063 180.694 276.078V274.092L176.037 271.166C175.649 271.218 175.288 271.347 174.964 271.552C173.884 272.235 173.276 273.687 173.276 275.672V277.678L175.69 279.194L175.376 279.77L173.276 278.452ZM183.402 274.733L181.302 273.414V273.701L182.911 274.712C184.481 275.693 185.953 275.864 187.032 275.181C188.111 274.498 188.72 273.047 188.72 271.061V269.076L184.063 266.15C183.675 266.202 183.315 266.33 182.99 266.536C181.91 267.219 181.302 268.671 181.302 270.656V272.641L183.716 274.156L183.402 274.733ZM179.085 272.022L180.694 273.032V273.318L177.451 271.282C177.974 271.423 178.523 271.671 179.085 272.022ZM185.478 266.266L188.72 268.302V268.016L187.111 267.006C186.549 266.655 186.001 266.407 185.478 266.266ZM189.328 268.398V268.684L190.937 269.695C192.507 270.677 193.979 270.848 195.058 270.165C196.138 269.482 196.746 268.03 196.746 266.045V264.072L192.073 261.136C191.691 261.19 191.336 261.317 191.016 261.52C189.937 262.203 189.328 263.654 189.328 265.64V267.625L191.742 269.14L191.428 269.717L189.328 268.398ZM199.454 264.7L197.354 263.382V263.68L198.944 264.679C200.514 265.661 201.986 265.832 203.065 265.149C204.144 264.466 204.753 263.014 204.753 261.029V259.022L200.127 256.116C199.735 256.167 199.37 256.296 199.042 256.504C197.963 257.187 197.354 258.638 197.354 260.623V262.608L199.768 264.124L199.454 264.7ZM195.137 261.989L196.746 263V263.298L193.47 261.24C194.003 261.38 194.563 261.631 195.137 261.989ZM201.556 256.24L204.753 258.248V257.971L203.163 256.973C202.611 256.628 202.071 256.383 201.556 256.24ZM205.361 258.353V258.63L206.97 259.641C208.54 260.623 210.012 260.794 211.091 260.111C212.17 259.428 212.779 257.976 212.779 255.991V254.006L208.15 251.098C207.751 251.147 207.381 251.277 207.049 251.487C205.969 252.17 205.361 253.622 205.361 255.607V257.58L207.794 259.108L207.48 259.684L205.361 258.353ZM215.487 254.668L213.387 253.349V253.614L214.996 254.625C216.566 255.607 218.038 255.778 219.117 255.095C220.197 254.412 220.805 252.96 220.805 250.975V248.989L216.148 246.064C215.76 246.116 215.4 246.244 215.075 246.45C213.995 247.133 213.387 248.584 213.387 250.569V252.576L215.801 254.092L215.487 254.668ZM211.17 251.957L212.779 252.967V253.232L209.598 251.234C210.102 251.378 210.63 251.62 211.17 251.957ZM217.563 246.179L220.805 248.216V247.93L219.196 246.919C218.634 246.568 218.086 246.321 217.563 246.179ZM221.413 248.312V248.598L223.022 249.609C224.592 250.591 226.064 250.761 227.143 250.078C228.223 249.395 228.831 247.944 228.831 245.959V243.973L224.174 241.048C223.786 241.1 223.426 241.228 223.101 241.434C222.022 242.117 221.413 243.568 221.413 245.553V247.538L223.827 249.054L223.513 249.63L221.413 248.312ZM231.539 244.614L229.439 243.296V243.582L231.048 244.593C232.618 245.575 234.09 245.745 235.17 245.062C236.249 244.379 236.857 242.928 236.857 240.942V238.957L232.228 236.049C231.83 236.099 231.46 236.228 231.127 236.438C230.048 237.122 229.439 238.573 229.439 240.558V242.522L231.853 244.038L231.539 244.614ZM227.222 241.903L228.831 242.914V243.2L225.589 241.163C226.112 241.305 226.661 241.552 227.222 241.903ZM233.676 236.185L236.857 238.183V237.919L235.248 236.908C234.708 236.571 234.18 236.329 233.676 236.185ZM237.465 238.3V238.566L239.075 239.576C240.645 240.558 242.116 240.729 243.196 240.046C244.275 239.363 244.883 237.911 244.883 235.926V233.953L240.21 231.017C239.828 231.071 239.474 231.198 239.153 231.401C238.074 232.084 237.465 233.535 237.465 235.521V237.527L239.879 239.043L239.565 239.619L237.465 238.3ZM247.591 234.581L245.492 233.263V233.561L247.081 234.56C248.651 235.542 250.123 235.713 251.202 235.03C252.282 234.347 252.89 232.895 252.89 230.91V228.912L248.281 226.017C247.882 226.066 247.512 226.196 247.179 226.406C246.1 227.089 245.492 228.541 245.492 230.526V232.489L247.905 234.005L247.591 234.581ZM243.274 231.871L244.883 232.881V233.179L241.607 231.121C242.14 231.261 242.701 231.512 243.274 231.871ZM249.729 226.153L252.89 228.139V227.874L251.3 226.876C250.761 226.538 250.233 226.297 249.729 226.153ZM253.498 228.256V228.521L255.127 229.544C256.697 230.526 258.169 230.697 259.248 230.013C260.327 229.33 260.936 227.879 260.936 225.894V223.899L256.287 220.979C255.889 221.028 255.519 221.158 255.186 221.368C254.107 222.052 253.498 223.503 253.498 225.488V227.482L255.932 229.01L255.618 229.587L253.498 228.256ZM263.624 224.549L261.544 223.243V223.508L263.134 224.506C264.703 225.488 266.175 225.659 267.255 224.976C268.334 224.293 268.942 222.841 268.942 220.856V218.87L264.317 215.965C263.924 216.016 263.56 216.144 263.232 216.352C262.152 217.035 261.544 218.487 261.544 220.472V222.469L263.938 223.973L263.624 224.549ZM259.307 221.838L260.936 222.861V223.126L257.735 221.115C258.239 221.259 258.767 221.501 259.307 221.838ZM265.746 216.089L268.942 218.097V217.82L267.353 216.822C266.801 216.477 266.261 216.232 265.746 216.089ZM269.551 218.202V218.479L271.16 219.49C272.73 220.472 274.201 220.643 275.281 219.96C276.36 219.277 276.968 217.825 276.968 215.84V213.867L272.295 210.931C271.913 210.984 271.559 211.112 271.238 211.315C270.159 211.998 269.551 213.449 269.551 215.434V217.428L271.984 218.956L271.67 219.533L269.551 218.202ZM279.676 214.495L277.577 213.177V213.475L279.166 214.474C280.736 215.456 282.208 215.626 283.287 214.943C284.367 214.26 284.975 212.809 284.975 210.824V208.838L280.321 205.915C279.94 205.968 279.585 206.096 279.264 206.298C278.185 206.981 277.577 208.433 277.577 210.418V212.403L279.99 213.919L279.676 214.495ZM275.359 211.784L276.968 212.795V213.093L273.692 211.035C274.225 211.175 274.786 211.425 275.359 211.784ZM281.718 206.019L284.975 208.064V207.766L283.385 206.768C282.812 206.409 282.251 206.159 281.718 206.019ZM285.583 208.148V208.447L287.192 209.458C288.762 210.439 290.234 210.61 291.313 209.927C292.393 209.244 293.001 207.793 293.001 205.807V203.822L288.344 200.896C287.956 200.948 287.596 201.076 287.271 201.282C286.192 201.965 285.583 203.417 285.583 205.402V207.375L288.017 208.902L287.703 209.479L285.583 208.148ZM293.609 200.407V202.371L296.023 203.886L295.709 204.463L293.609 203.144V203.43L295.218 204.441C296.788 205.423 298.26 205.594 299.339 204.911C300.419 204.228 301.027 202.776 301.027 200.791V197.767L299.418 196.757C297.848 195.775 296.376 195.604 295.297 196.287C294.218 196.97 293.609 198.422 293.609 200.407ZM291.392 201.752L293.001 202.762V203.048L289.759 201.011C290.282 201.153 290.831 201.401 291.392 201.752Z" fill="url(#paint2_linear)"/>
<path d="M314.372 391.409L155.87 291.873L314.372 192.338L472.874 291.873L314.372 391.409Z" fill="url(#paint3_linear)"/>
<path d="M314.372 389.082L157.734 290.699L155.87 291.873L314.372 391.409L472.874 291.873L471.009 290.721L314.372 389.082Z" fill="#FEDDFF"/>
<path d="M314.371 368.462L192.468 291.895L314.371 215.349L436.275 291.895L314.371 368.462Z" fill="#0F054C"/>
<path opacity="0.5" d="M314.371 368.462L192.468 291.895L314.371 215.349L436.275 291.895L314.371 368.462Z" fill="url(#paint4_linear)"/>
<path opacity="0.5" d="M314.371 196.031L436.275 272.598V291.895L314.371 215.328V196.031Z" fill="url(#paint5_linear)"/>
<path opacity="0.5" d="M314.371 215.328L192.468 291.895V272.598L314.371 196.031V215.328Z" fill="url(#paint6_linear)"/>
<path d="M314.371 349.144L192.468 272.598L314.371 196.031L436.275 272.598L314.371 349.144Z" fill="url(#paint7_linear)"/>
<path opacity="0.5" d="M314.372 349.144V368.462L436.275 291.895V272.598L314.372 349.144Z" fill="url(#paint8_linear)"/>
<path opacity="0.5" d="M192.468 272.598V291.895L314.371 368.462V349.144L192.468 272.598Z" fill="url(#paint9_linear)"/>
<path opacity="0.8" d="M314.371 347.052L194.136 271.531L192.468 272.598L314.371 349.144L436.275 272.598L434.607 271.531L314.371 347.052Z" fill="#F5B5FF"/>
<path fill-rule="evenodd" clip-rule="evenodd" d="M485.826 326.24L506.45 339.197L506.764 338.621L486.14 325.664C482.784 323.55 480.037 318.385 480.037 314.158V308.737C480.037 304.275 477.152 298.853 473.62 296.634L469.302 293.923L468.988 294.499L473.306 297.21C476.661 299.323 479.409 304.489 479.409 308.715V314.137C479.409 318.598 482.293 324.02 485.826 326.24ZM498.424 344.235L477.8 331.278C474.267 329.058 471.383 323.636 471.383 319.175V313.753C471.383 309.526 468.635 304.361 465.28 302.247L460.962 299.536L461.276 298.96L465.594 301.671C469.126 303.891 472.011 309.313 472.011 313.774V319.196C472.011 323.422 474.758 328.588 478.114 330.701L498.738 343.658L498.424 344.235ZM469.773 336.294L490.398 349.251L490.712 348.675L470.087 335.718C466.732 333.604 463.984 328.439 463.984 324.212V318.812C463.984 314.351 461.1 308.929 457.567 306.709L453.25 303.998L452.936 304.574L457.253 307.285C460.609 309.398 463.356 314.564 463.356 318.79V324.191C463.356 328.652 466.241 334.074 469.773 336.294ZM482.372 354.288L461.747 341.332C458.215 339.112 455.33 333.69 455.33 329.228V323.807C455.33 319.58 452.583 314.415 449.227 312.301L444.91 309.59L445.224 309.014L449.541 311.725C453.074 313.945 455.958 319.367 455.958 323.828V329.25C455.958 333.476 458.706 338.642 462.061 340.755L482.686 353.712L482.372 354.288ZM453.721 346.348L474.346 359.305L474.66 358.728L454.035 345.771C450.679 343.658 447.932 338.493 447.932 334.266V328.844C447.932 324.383 445.047 318.961 441.515 316.741L437.198 314.03L436.884 314.607L441.201 317.318C444.557 319.431 447.304 324.596 447.304 328.823V334.245C447.304 338.706 450.189 344.128 453.721 346.348ZM466.32 364.342L445.695 351.385C442.163 349.165 439.278 343.744 439.278 339.282V333.882C439.278 329.655 436.531 324.49 433.175 322.377L428.858 319.666L429.172 319.089L433.489 321.8C437.021 324.02 439.906 329.442 439.906 333.903V339.304C439.906 343.53 442.653 348.696 446.009 350.809L466.634 363.766L466.32 364.342ZM437.688 356.402L458.313 369.358L458.627 368.782L438.002 355.825C434.647 353.712 431.899 348.546 431.899 344.32V338.898C431.899 334.437 429.015 329.015 425.482 326.795L421.165 324.084L420.851 324.661L425.168 327.371C428.524 329.485 431.271 334.65 431.271 338.877V344.299C431.271 348.76 434.156 354.182 437.688 356.402ZM450.287 374.396L429.662 361.439C426.13 359.219 423.245 353.798 423.245 349.336V343.914C423.245 339.688 420.498 334.522 417.142 332.409L412.825 329.698L413.139 329.122L417.456 331.833C420.988 334.053 423.873 339.474 423.873 343.936V349.358C423.873 353.584 426.621 358.75 429.976 360.863L450.601 373.82L450.287 374.396ZM421.636 366.477L442.261 379.434L442.575 378.857L421.95 365.9C418.594 363.787 415.847 358.622 415.847 354.395V348.995C415.847 344.533 412.962 339.112 409.43 336.892L405.113 334.181L404.799 334.757L409.116 337.468C412.472 339.581 415.219 344.747 415.219 348.973V354.374C415.219 358.835 418.104 364.257 421.636 366.477ZM434.235 384.45L413.61 371.493C410.078 369.273 407.193 363.851 407.193 359.39V353.968C407.193 349.742 404.446 344.576 401.09 342.463L396.773 339.752L397.087 339.176L401.404 341.886C404.936 344.106 407.821 349.528 407.821 353.99V359.411C407.821 363.638 410.568 368.804 413.924 370.917L434.549 383.874L434.235 384.45ZM405.584 376.531L426.208 389.488L426.522 388.911L405.898 375.954C402.542 373.841 399.795 368.675 399.795 364.449V359.027C399.795 354.566 396.91 349.144 393.378 346.924L389.06 344.213L388.746 344.789L393.064 347.5C396.419 349.614 399.167 354.779 399.167 359.006V364.428C399.167 368.889 402.051 374.311 405.584 376.531ZM418.202 394.504L397.577 381.547C394.045 379.327 391.16 373.884 391.16 369.444V364.043C391.16 359.817 388.413 354.651 385.057 352.538L380.74 349.827L381.054 349.251L385.371 351.962C388.904 354.182 391.788 359.604 391.788 364.065V369.465C391.788 373.692 394.536 378.857 397.891 380.971L418.516 393.927L418.202 394.504ZM389.551 386.585L410.176 399.541L410.49 398.965L389.865 386.008C386.509 383.895 383.762 378.729 383.762 374.503V369.081C383.762 364.62 380.877 359.198 377.345 356.978L373.028 354.267L372.714 354.843L377.031 357.554C380.387 359.668 383.134 364.833 383.134 369.06V374.481C383.134 378.943 386.019 384.365 389.551 386.585ZM402.15 404.558L381.525 391.601C377.993 389.381 375.108 383.959 375.108 379.498V374.076C375.108 369.85 372.361 364.684 369.005 362.571L364.688 359.86L365.002 359.283L369.319 361.994C372.851 364.214 375.736 369.636 375.736 374.097V379.519C375.736 383.746 378.483 388.911 381.839 391.025L402.464 403.981L402.15 404.558ZM373.499 396.639L394.124 409.595L394.438 409.019L373.813 396.062C370.457 393.949 367.71 388.783 367.71 384.557V379.156C367.71 374.695 364.825 369.273 361.293 367.053L356.976 364.342L356.662 364.919L360.979 367.63C364.334 369.743 367.082 374.909 367.082 379.135V384.535C367.082 388.997 369.967 394.419 373.499 396.639ZM386.097 414.633L365.473 401.676C361.94 399.456 359.056 394.034 359.056 389.573V384.151C359.056 379.925 356.308 374.759 352.953 372.646L348.635 369.935L348.949 369.359L353.267 372.069C356.799 374.289 359.684 379.711 359.684 384.173V389.594C359.684 393.821 362.431 398.986 365.787 401.1L386.411 414.057L386.097 414.633ZM357.466 406.692L491.815 495.254L492.129 494.678L357.78 406.116C354.424 404.003 351.677 398.837 351.677 394.611V389.189C351.677 384.728 348.792 379.306 345.26 377.086L340.943 374.375L340.629 374.951L344.946 377.662C348.302 379.775 351.049 384.941 351.049 389.167V394.589C351.049 399.051 353.934 404.472 357.466 406.692ZM370.065 424.687L349.44 411.73C345.908 409.51 343.023 404.088 343.023 399.627V394.226C343.023 390 340.276 384.834 336.92 382.721L332.603 380.01L332.917 379.434L337.234 382.145C340.766 384.365 343.651 389.786 343.651 394.248V399.648C343.651 403.875 346.398 409.04 349.754 411.154L370.379 424.11L370.065 424.687ZM341.414 416.746L362.038 429.703L362.352 429.127L341.728 416.17C338.372 414.057 335.625 408.891 335.625 404.664V399.243C335.625 394.781 332.74 389.36 329.208 387.14L324.89 384.429L324.576 385.005L328.894 387.716C332.249 389.829 334.997 394.995 334.997 399.221V404.643C334.997 409.104 337.881 414.526 341.414 416.746ZM333.388 421.784L354.012 434.741L354.326 434.164L333.702 421.207C330.346 419.094 327.599 413.928 327.599 409.702V404.28C327.599 399.819 324.714 394.397 321.182 392.177L316.864 389.466L316.55 390.043L320.868 392.753C324.223 394.867 326.971 400.032 326.971 404.259V409.681C326.971 414.142 329.855 419.564 333.388 421.784Z" fill="url(#paint10_linear)"/>
<path fill-rule="evenodd" clip-rule="evenodd" d="M121.43 338.621L121.744 339.197L142.368 326.24C145.901 323.999 148.785 318.577 148.785 314.137V308.715C148.785 304.489 151.513 299.323 154.888 297.21L159.206 294.499L158.892 293.923L154.574 296.634C151.042 298.853 148.157 304.297 148.157 308.737V314.158C148.157 318.385 145.43 323.55 142.054 325.664L121.43 338.621ZM129.77 344.235L129.456 343.658L150.081 330.701C153.456 328.588 156.184 323.422 156.184 319.196V313.774C156.184 309.334 159.068 303.912 162.601 301.671L166.918 298.96L167.232 299.537L162.915 302.247C159.539 304.361 156.812 309.526 156.812 313.753V319.175C156.812 323.615 153.927 329.036 150.394 331.278L129.77 344.235ZM137.482 348.675L137.796 349.251L158.421 336.294C161.953 334.074 164.838 328.631 164.838 324.191V318.79C164.838 314.564 167.565 309.398 170.941 307.285L175.258 304.574L174.944 303.998L170.627 306.709C167.094 308.929 164.21 314.372 164.21 318.812V324.212C164.21 328.439 161.482 333.604 158.107 335.718L137.482 348.675ZM145.802 354.288L145.488 353.712L166.113 340.755C169.488 338.642 172.216 333.476 172.216 329.25V323.828C172.216 319.388 175.101 313.945 178.633 311.725L182.95 309.014L183.264 309.59L178.947 312.301C175.572 314.415 172.844 319.58 172.844 323.807V329.228C172.844 333.668 169.959 339.09 166.427 341.332L145.802 354.288ZM176.71 414.91L176.553 414.825L42 313.167L42.314 312.569L176.71 414.142L209.678 393.927L230.303 380.971C233.678 378.857 236.406 373.692 236.406 369.465V364.065C236.406 359.625 239.291 354.182 242.823 351.962L247.14 349.251L247.454 349.827L243.137 352.538C239.762 354.651 237.034 359.817 237.034 364.043V369.444C237.034 373.884 234.149 379.327 230.617 381.547L209.992 394.504L176.71 414.91ZM217.704 398.965L218.018 399.541L238.643 386.585C242.175 384.343 245.06 378.921 245.06 374.481V369.06C245.06 364.833 247.788 359.668 251.163 357.554L255.48 354.843L255.166 354.267L250.849 356.978C247.317 359.198 244.432 364.641 244.432 369.081V374.503C244.432 378.729 241.704 383.895 238.329 386.008L217.704 398.965ZM226.044 404.558L225.73 403.981L246.355 391.025C249.73 388.911 252.458 383.746 252.458 379.519V374.097C252.458 369.657 255.343 364.236 258.875 361.994L263.192 359.283L263.506 359.86L259.189 362.571C255.814 364.684 253.086 369.85 253.086 374.076V379.498C253.086 383.938 250.201 389.381 246.669 391.601L226.044 404.558ZM233.737 409.019L234.051 409.595L254.676 396.639C258.208 394.419 261.093 388.975 261.093 384.535V379.135C261.093 374.909 263.82 369.743 267.196 367.63L271.513 364.919L271.199 364.342L266.882 367.053C263.349 369.273 260.465 374.716 260.465 379.156V384.557C260.465 388.783 257.737 393.949 254.362 396.062L233.737 409.019ZM242.077 414.633L241.763 414.057L262.388 401.1C265.763 398.987 268.491 393.821 268.491 389.594V384.173C268.491 379.733 271.376 374.289 274.908 372.07L279.225 369.359L279.539 369.935L275.222 372.646C271.847 374.759 269.119 379.925 269.119 384.151V389.573C269.119 394.013 266.234 399.435 262.702 401.676L242.077 414.633ZM249.789 419.073L250.103 419.649L270.728 406.692C274.26 404.472 277.145 399.029 277.145 394.589V389.167C277.145 384.941 279.873 379.775 283.248 377.662L287.565 374.951L287.251 374.375L282.934 377.086C279.402 379.327 276.517 384.749 276.517 389.189V394.611C276.517 398.837 273.789 404.003 270.414 406.116L249.789 419.073ZM258.129 424.687L257.815 424.11L278.44 411.154C281.815 409.04 284.543 403.875 284.543 399.648V394.248C284.543 389.808 287.428 384.365 290.96 382.145L295.277 379.434L295.591 380.01L291.274 382.721C287.899 384.834 285.171 390 285.171 394.226V399.627C285.171 404.067 282.286 409.51 278.754 411.73L258.129 424.687ZM265.842 429.127L266.156 429.703L286.781 416.746C290.313 414.505 293.198 409.083 293.198 404.643V399.221C293.198 394.995 295.925 389.829 299.301 387.716L303.618 385.005L303.304 384.429L298.987 387.14C295.454 389.36 292.57 394.803 292.57 399.243V404.664C292.57 408.891 289.842 414.057 286.467 416.17L265.842 429.127ZM273.849 434.164L274.163 434.741L294.787 421.784C298.32 419.564 301.204 414.121 301.204 409.681V404.259C301.204 400.032 303.932 394.867 307.307 392.753L311.625 390.043L311.311 389.466L306.993 392.177C303.461 394.418 300.576 399.84 300.576 404.28V409.702C300.576 413.929 297.849 419.094 294.473 421.207L273.849 434.164ZM201.652 388.911L201.966 389.488L222.591 376.531C226.123 374.311 229.008 368.868 229.008 364.428V359.006C229.008 354.779 231.735 349.614 235.111 347.5L239.428 344.789L239.114 344.213L234.797 346.924C231.264 349.165 228.38 354.587 228.38 359.027V364.449C228.38 368.675 225.652 373.841 222.277 375.954L201.652 388.911ZM193.94 384.45L193.626 383.874L214.25 370.917C217.626 368.804 220.354 363.638 220.354 359.411V353.99C220.354 349.55 223.238 344.106 226.771 341.887L231.088 339.176L231.402 339.752L227.085 342.463C223.709 344.576 220.981 349.742 220.981 353.968V359.39C220.981 363.83 218.097 369.252 214.564 371.493L193.94 384.45ZM185.6 378.857L185.914 379.434L206.538 366.477C210.071 364.257 212.955 358.814 212.955 354.374V348.973C212.955 344.747 215.683 339.581 219.058 337.468L223.376 334.757L223.062 334.181L218.744 336.892C215.212 339.112 212.327 344.555 212.327 348.995V354.395C212.327 358.622 209.6 363.787 206.224 365.901L185.6 378.857ZM177.907 374.396L177.593 373.82L198.218 360.863C201.593 358.75 204.321 353.584 204.321 349.358V343.936C204.321 339.496 207.206 334.074 210.738 331.833L215.055 329.122L215.369 329.698L211.052 332.409C207.676 334.522 204.949 339.688 204.949 343.914V349.336C204.949 353.776 202.064 359.219 198.532 361.439L177.907 374.396ZM169.567 368.782L169.881 369.358L190.506 356.402C194.038 354.16 196.923 348.738 196.923 344.299V338.877C196.923 334.65 199.65 329.485 203.026 327.371L207.343 324.661L207.029 324.084L202.712 326.795C199.179 329.015 196.295 334.458 196.295 338.898V344.32C196.295 348.546 193.567 353.712 190.192 355.825L169.567 368.782ZM161.855 364.342L161.541 363.766L182.165 350.809C185.541 348.696 188.268 343.53 188.268 339.304V333.903C188.268 329.463 191.153 324.02 194.685 321.8L199.003 319.089L199.317 319.666L194.999 322.377C191.624 324.49 188.896 329.655 188.896 333.882V339.282C188.896 343.722 186.012 349.165 182.479 351.385L161.855 364.342ZM153.515 358.728L153.829 359.305L174.453 346.348C177.986 344.128 180.87 338.685 180.87 334.245V328.823C180.87 324.596 183.598 319.431 186.973 317.318L191.291 314.607L190.977 314.03L186.659 316.741C183.127 318.983 180.242 324.404 180.242 328.844V334.266C180.242 338.493 177.515 343.658 174.139 345.772L153.515 358.728Z" fill="url(#paint11_linear)"/>
<path d="M313.639 318.657L198.814 242.427L313.639 166.197L428.464 242.427L313.639 318.657Z" fill="url(#paint12_linear)"/>
<path d="M313.639 171.042L199.718 95.4121L313.639 19.7823L427.56 95.4121L313.639 171.042Z" fill="url(#paint13_linear)" stroke="url(#paint14_linear)"/>
<path d="M313.139 171.91V317.725L199.314 242.159V96.3442L313.139 171.91Z" fill="url(#paint15_linear)" stroke="url(#paint16_linear)"/>
<path d="M427.964 96.3442V242.159L314.139 317.725V171.91L427.964 96.3442Z" fill="url(#paint17_linear)" stroke="url(#paint18_linear)"/>
<path d="M574.814 227.806L546.814 209.217L574.814 190.629L602.814 209.217L574.814 227.806Z" fill="url(#paint19_linear)"/>
<path d="M574.814 191.896L546.904 173.368L574.814 154.839L602.724 173.368L574.814 191.896Z" fill="url(#paint20_linear)" stroke="white" stroke-width="0.1"/>
<path d="M574.764 191.983V227.713L546.864 209.191V173.461L574.764 191.983Z" fill="url(#paint21_linear)" stroke="white" stroke-width="0.1"/>
<path d="M602.764 173.461V209.191L574.864 227.713V191.983L602.764 173.461Z" fill="url(#paint22_linear)" stroke="white" stroke-width="0.1"/>
<path d="M574.814 177.28L546.814 158.692L574.814 140.103L602.814 158.692L574.814 177.28Z" fill="url(#paint23_linear)"/>
<path d="M574.814 141.371L546.904 122.842L574.814 104.313L602.724 122.842L574.814 141.371Z" fill="url(#paint24_linear)" stroke="white" stroke-width="0.1"/>
<path d="M574.764 141.457V177.187L546.864 158.665V122.935L574.764 141.457Z" fill="url(#paint25_linear)" stroke="white" stroke-width="0.1"/>
<path d="M602.764 122.935V158.665L574.864 177.187V141.457L602.764 122.935Z" fill="url(#paint26_linear)" stroke="white" stroke-width="0.1"/>
<path d="M88.814 187.096L60.814 168.508L88.814 149.919L116.814 168.508L88.814 187.096Z" fill="url(#paint27_linear)"/>
<path d="M88.814 151.187L60.9044 132.658L88.814 114.129L116.724 132.658L88.814 151.187Z" fill="url(#paint28_linear)" stroke="white" stroke-width="0.1"/>
<path d="M88.764 151.273V187.003L60.864 168.481V132.751L88.764 151.273Z" fill="url(#paint29_linear)" stroke="white" stroke-width="0.1"/>
<path d="M116.764 132.751V168.481L88.864 187.003V151.273L116.764 132.751Z" fill="url(#paint30_linear)" stroke="white" stroke-width="0.1"/>
<path opacity="0.4" d="M514.74 544.446C499.636 544.446 484.532 540.839 473.033 533.609C461.838 526.577 455.678 517.23 455.678 507.269C455.678 497.309 461.838 487.945 473.033 480.93C496.031 466.486 533.449 466.486 556.462 480.93C567.657 487.962 573.817 497.309 573.817 507.269C573.817 517.23 567.657 526.594 556.477 533.609C544.963 540.839 529.859 544.446 514.74 544.446ZM514.74 470.606C499.727 470.606 484.7 474.196 473.277 481.377C462.249 488.309 456.165 497.508 456.165 507.269C456.165 517.031 462.234 526.23 473.277 533.162C496.138 547.523 533.357 547.523 556.218 533.162C567.246 526.23 573.33 517.031 573.33 507.269C573.33 497.491 567.261 488.309 556.218 481.377C544.78 474.196 529.768 470.606 514.74 470.606Z" fill="#42E8E0"/>
<path opacity="0.2" d="M514.74 554.406C495.575 554.406 476.41 549.823 461.808 540.657C447.632 531.756 439.814 519.893 439.814 507.269C439.814 494.646 447.632 482.783 461.808 473.882C490.997 455.55 538.483 455.55 567.657 473.882C581.848 482.783 589.651 494.646 589.651 507.269C589.651 519.893 581.848 531.756 567.657 540.657L567.535 540.425L567.657 540.657C553.085 549.823 533.92 554.406 514.74 554.406ZM514.74 460.646C495.666 460.646 476.577 465.212 462.051 474.328C448.028 483.147 440.301 494.828 440.301 507.269C440.301 519.695 448.028 531.392 462.051 540.21C491.103 558.459 538.377 558.459 567.428 540.21C581.452 531.392 589.179 519.711 589.179 507.269C589.179 494.828 581.452 483.147 567.428 474.328C552.903 465.212 533.829 460.646 514.74 460.646Z" fill="#42E8E0"/>
<path d="M514.755 536.604C502.845 536.604 490.951 533.758 481.886 528.067C473.064 522.524 468.196 515.145 468.196 507.27C468.196 499.394 473.064 492.015 481.886 486.473C500.016 475.09 529.509 475.09 547.64 486.473C556.462 492.015 561.329 499.411 561.329 507.27C561.329 515.128 556.462 522.524 547.64 528.067C538.559 533.758 526.65 536.604 514.755 536.604ZM514.74 478.448C502.921 478.448 491.103 481.277 482.114 486.919C473.444 492.363 468.668 499.593 468.668 507.27C468.668 514.946 473.444 522.16 482.114 527.62C500.108 538.92 529.387 538.92 547.381 527.62L547.503 527.851L547.381 527.62C556.051 522.177 560.827 514.946 560.827 507.286C560.827 499.609 556.051 492.379 547.381 486.936C538.377 481.277 526.558 478.448 514.74 478.448Z" fill="#42E8E0"/>
<g opacity="0.6" filter="url(#filter1_f)">
<path d="M514.74 519.447L491.833 505.053L514.74 490.658L537.662 505.053L514.74 519.447Z" fill="#03002D"/>
</g>
<path d="M514.814 507.75L486.814 489.161L514.814 470.573L542.814 489.161L514.814 507.75Z" fill="url(#paint31_linear)"/>
<path d="M514.814 471.84L486.904 453.312L514.814 434.783L542.724 453.312L514.814 471.84Z" fill="url(#paint32_linear)" stroke="white" stroke-width="0.1"/>
<path d="M514.764 471.927V507.656L486.864 489.134V453.405L514.764 471.927Z" fill="url(#paint33_linear)" stroke="white" stroke-width="0.1"/>
<path d="M542.764 453.405V489.134L514.864 507.656V471.927L542.764 453.405Z" fill="url(#paint34_linear)" stroke="white" stroke-width="0.1"/>
<circle cx="471.814" cy="422.572" r="3" fill="#42E8E0" fill-opacity="0.2"/>
<circle cx="471.814" cy="422.572" r="1.5" fill="#8FFFFA"/>
<circle cx="527.814" cy="471.572" r="2" fill="#42E8E0" fill-opacity="0.2"/>
<circle cx="527.814" cy="471.572" r="1" fill="#8FFFFA"/>
<circle cx="554.814" cy="459.572" r="3" fill="#42E8E0" fill-opacity="0.2"/>
<circle cx="554.814" cy="459.572" r="1.5" fill="#8FFFFA"/>
<circle cx="547.814" cy="473.572" r="3" fill="#42E8E0" fill-opacity="0.2"/>
<circle cx="547.814" cy="473.572" r="1.5" fill="#8FFFFA"/>
<circle cx="413.814" cy="11.572" r="5" fill="#42E8E0" fill-opacity="0.2"/>
<circle cx="413.814" cy="11.572" r="2.5" fill="#8FFFFA"/>
<circle cx="566.814" cy="261.572" r="5" fill="#42E8E0" fill-opacity="0.2"/>
<circle cx="566.814" cy="261.572" r="2.5" fill="#8FFFFA"/>
<circle cx="147.814" cy="178.572" r="5" fill="#42E8E0" fill-opacity="0.2"/>
<circle cx="147.814" cy="178.572" r="2.5" fill="#8FFFFA"/>
<circle cx="176.814" cy="63.572" r="3" fill="#42E8E0" fill-opacity="0.2"/>
<circle cx="176.814" cy="63.572" r="1.5" fill="#8FFFFA"/>
<circle cx="489.814" cy="143.572" r="3" fill="#42E8E0" fill-opacity="0.2"/>
<circle cx="489.814" cy="143.572" r="1.5" fill="#8FFFFA"/>
<circle cx="568.814" cy="432.572" r="2" fill="#42E8E0" fill-opacity="0.2"/>
<circle cx="568.814" cy="432.572" r="1" fill="#8FFFFA"/>
<circle cx="462.814" cy="461.572" r="2" fill="#42E8E0" fill-opacity="0.2"/>
<circle cx="462.814" cy="461.572" r="1" fill="#8FFFFA"/>
<path opacity="0.4" d="M64 227.584C64 229.437 65.3841 230.943 67.0877 230.943C68.7913 230.943 70.1754 229.437 70.1754 227.584C70.1754 225.731 68.7913 224.226 67.0877 224.226C65.3841 224.226 64 225.731 64 227.584Z" fill="#42E8E0"/>
<path d="M65.7493 227.584C65.7493 228.395 66.3577 229.04 67.0878 229.04C67.8331 229.04 68.4263 228.395 68.4263 227.584C68.4263 226.774 67.8179 226.128 67.0878 226.128C66.3577 226.128 65.7493 226.774 65.7493 227.584Z" fill="#42E8E0"/>
<rect x="151.814" y="86.572" width="2" height="60" fill="url(#paint35_linear)"/>
<rect x="518.814" y="123.572" width="2" height="60" fill="url(#paint36_linear)"/>
<rect x="541.814" y="285.572" width="2" height="60" fill="url(#paint37_linear)"/>
<rect x="457.814" y="33.572" width="2" height="60" fill="url(#paint38_linear)"/>
<rect x="94.814" y="192.572" width="2" height="60" fill="url(#paint39_linear)"/>
<path opacity="0.4" d="M112.815 169.389C112.545 76.552 195.105 1.00208 297.215 0.642159C399.325 0.282242 482.325 75.265 482.605 168.102C482.875 260.939 400.315 336.5 298.205 336.849C196.085 337.209 113.085 262.237 112.815 169.389Z" fill="url(#paint40_radial)"/>
<path opacity="0.2" d="M285.814 153.691C285.64 92.8531 331.383 43.3764 387.995 43.1771C444.606 42.9778 490.639 92.1373 490.813 152.975C490.988 213.813 445.245 263.29 388.633 263.489C332.03 263.688 285.997 214.529 285.814 153.691Z" fill="url(#paint41_radial)"/>
<path opacity="0.2" d="M141.814 126.425C141.64 65.5867 187.383 16.1101 243.995 15.9108C300.606 15.7114 346.639 64.871 346.813 125.709C346.988 186.547 301.245 236.023 244.633 236.223C188.03 236.422 141.997 187.262 141.814 126.425Z" fill="url(#paint42_radial)"/>
<defs>
<filter id="filter0_f" x="0.057373" y="70.3379" width="656.762" height="515.599" filterUnits="userSpaceOnUse" color-interpolation-filters="sRGB">
<feFlood flood-opacity="0" result="BackgroundImageFix"/>
<feBlend mode="normal" in="SourceGraphic" in2="BackgroundImageFix" result="shape"/>
<feGaussianBlur stdDeviation="50" result="effect1_foregroundBlur"/>
</filter>
<filter id="filter1_f" x="471.833" y="470.658" width="85.8287" height="68.7881" filterUnits="userSpaceOnUse" color-interpolation-filters="sRGB">
<feFlood flood-opacity="0" result="BackgroundImageFix"/>
<feBlend mode="normal" in="SourceGraphic" in2="BackgroundImageFix" result="shape"/>
<feGaussianBlur stdDeviation="10" result="effect1_foregroundBlur"/>
</filter>
<linearGradient id="paint0_linear" x1="142.57" y1="341.967" x2="557.45" y2="319.285" gradientUnits="userSpaceOnUse">
<stop stop-color="#FAE247"/>
<stop offset="0.477" stop-color="#F7618B"/>
<stop offset="1" stop-color="#2A7AFF"/>
</linearGradient>
<linearGradient id="paint1_linear" x1="460.814" y1="285.303" x2="566.138" y2="228.413" gradientUnits="userSpaceOnUse">
<stop stop-color="#42E8E0"/>
<stop offset="1" stop-color="#42E8E0" stop-opacity="0"/>
</linearGradient>
<linearGradient id="paint2_linear" x1="195.814" y1="284.757" x2="168.629" y2="243.215" gradientUnits="userSpaceOnUse">
<stop stop-color="#42E8E0"/>
<stop offset="1" stop-color="#42E8E0" stop-opacity="0"/>
</linearGradient>
<linearGradient id="paint3_linear" x1="314.814" y1="391.097" x2="314.814" y2="199.141" gradientUnits="userSpaceOnUse">
<stop stop-color="#101253"/>
<stop offset="1" stop-color="#46136F"/>
</linearGradient>
<linearGradient id="paint4_linear" x1="192.464" y1="291.898" x2="436.28" y2="291.898" gradientUnits="userSpaceOnUse">
<stop stop-color="#42E8E0"/>
<stop offset="0.1507" stop-color="#43E3E0"/>
<stop offset="0.3285" stop-color="#45D5DF"/>
<stop offset="0.5199" stop-color="#49BDDD"/>
<stop offset="0.7209" stop-color="#4E9CDB"/>
<stop offset="0.9274" stop-color="#5472D8"/>
<stop offset="1" stop-color="#5761D7"/>
</linearGradient>
<linearGradient id="paint5_linear" x1="314.37" y1="243.965" x2="436.28" y2="243.965" gradientUnits="userSpaceOnUse">
<stop stop-color="#42E8E0"/>
<stop offset="0.1507" stop-color="#43E3E0"/>
<stop offset="0.3285" stop-color="#45D5DF"/>
<stop offset="0.5199" stop-color="#49BDDD"/>
<stop offset="0.7209" stop-color="#4E9CDB"/>
<stop offset="0.9274" stop-color="#5472D8"/>
<stop offset="1" stop-color="#5761D7"/>
</linearGradient>
<linearGradient id="paint6_linear" x1="192.464" y1="243.964" x2="314.374" y2="243.964" gradientUnits="userSpaceOnUse">
<stop stop-color="#42E8E0"/>
<stop offset="0.1507" stop-color="#43E3E0"/>
<stop offset="0.3285" stop-color="#45D5DF"/>
<stop offset="0.5199" stop-color="#49BDDD"/>
<stop offset="0.7209" stop-color="#4E9CDB"/>
<stop offset="0.9274" stop-color="#5472D8"/>
<stop offset="1" stop-color="#5761D7"/>
</linearGradient>
<linearGradient id="paint7_linear" x1="314.815" y1="214.41" x2="314.815" y2="349.652" gradientUnits="userSpaceOnUse">
<stop stop-color="#3F4295"/>
<stop offset="0.0208333" stop-color="#3E4193"/>
<stop offset="1" stop-color="#020321"/>
</linearGradient>
<linearGradient id="paint8_linear" x1="319.815" y1="355.65" x2="441.701" y2="281.95" gradientUnits="userSpaceOnUse">
<stop stop-color="#040D23"/>
<stop offset="1" stop-color="#051524"/>
</linearGradient>
<linearGradient id="paint9_linear" x1="196.315" y1="283.667" x2="312.943" y2="345.249" gradientUnits="userSpaceOnUse">
<stop stop-color="#AB8F2B"/>
<stop offset="1" stop-color="#030246"/>
</linearGradient>
<linearGradient id="paint10_linear" x1="334.814" y1="378.554" x2="466.014" y2="447.771" gradientUnits="userSpaceOnUse">
<stop stop-color="#42E8E0"/>
<stop offset="1" stop-color="#42E8E0" stop-opacity="0"/>
</linearGradient>
<linearGradient id="paint11_linear" x1="220.814" y1="394.369" x2="41.9801" y2="329.718" gradientUnits="userSpaceOnUse">
<stop stop-color="#42E8E0"/>
<stop offset="1" stop-color="#42E8E0" stop-opacity="0"/>
</linearGradient>
<linearGradient id="paint12_linear" x1="262.032" y1="199.295" x2="380.741" y2="266.084" gradientUnits="userSpaceOnUse">
<stop stop-color="#0077FF"/>
<stop offset="1" stop-color="#FF6DDF"/>
</linearGradient>
<linearGradient id="paint13_linear" x1="377.5" y1="32.27" x2="228.613" y2="147.666" gradientUnits="userSpaceOnUse">
<stop offset="0.0160523" stop-color="#5546FF" stop-opacity="0.13"/>
<stop offset="0.577044" stop-color="#FAE247" stop-opacity="0.21"/>
</linearGradient>
<linearGradient id="paint14_linear" x1="313.639" y1="19.1821" x2="313.639" y2="171.642" gradientUnits="userSpaceOnUse">
<stop stop-color="white" stop-opacity="0"/>
<stop offset="1" stop-color="white"/>
</linearGradient>
<linearGradient id="paint15_linear" x1="241.5" y1="126.067" x2="238.954" y2="266.209" gradientUnits="userSpaceOnUse">
<stop stop-color="#C2FFFC" stop-opacity="0.2"/>
<stop offset="1" stop-color="#FF74B1" stop-opacity="0.79"/>
</linearGradient>
<linearGradient id="paint16_linear" x1="314" y1="169.693" x2="193.992" y2="235.234" gradientUnits="userSpaceOnUse">
<stop stop-color="white"/>
<stop offset="1" stop-color="white" stop-opacity="0"/>
</linearGradient>
<linearGradient id="paint17_linear" x1="371.697" y1="133.16" x2="380.973" y2="277.574" gradientUnits="userSpaceOnUse">
<stop stop-color="#00CAFF" stop-opacity="0.66"/>
<stop offset="1" stop-color="#FAE247" stop-opacity="0.21"/>
</linearGradient>
<linearGradient id="paint18_linear" x1="314" y1="168.057" x2="433.2" y2="235.166" gradientUnits="userSpaceOnUse">
<stop stop-color="white"/>
<stop offset="1" stop-color="white" stop-opacity="0"/>
</linearGradient>
<linearGradient id="paint19_linear" x1="562.23" y1="198.7" x2="591.177" y2="214.986" gradientUnits="userSpaceOnUse">
<stop stop-color="#0077FF"/>
<stop offset="1" stop-color="#E33170" stop-opacity="0.5904"/>
</linearGradient>
<linearGradient id="paint20_linear" x1="583.89" y1="165.152" x2="564.762" y2="190.457" gradientUnits="userSpaceOnUse">
<stop stop-color="#5546FF" stop-opacity="0.13"/>
<stop offset="1" stop-color="#23D7FF" stop-opacity="0.71"/>
</linearGradient>
<linearGradient id="paint21_linear" x1="560.814" y1="173.368" x2="555.932" y2="214.928" gradientUnits="userSpaceOnUse">
<stop stop-color="#74CCFF" stop-opacity="0"/>
<stop offset="0.655563" stop-color="#D88DC7" stop-opacity="0.6"/>
<stop offset="1" stop-color="#FF74B1" stop-opacity="0.49"/>
</linearGradient>
<linearGradient id="paint22_linear" x1="588.971" y1="182.573" x2="606.532" y2="216.36" gradientUnits="userSpaceOnUse">
<stop stop-color="#00CAFF" stop-opacity="0.66"/>
<stop offset="0.6249" stop-color="#204B9E" stop-opacity="0"/>
</linearGradient>
<linearGradient id="paint23_linear" x1="562.23" y1="148.174" x2="591.177" y2="164.46" gradientUnits="userSpaceOnUse">
<stop stop-color="#0077FF"/>
<stop offset="1" stop-color="#EB306D" stop-opacity="0.7521"/>
</linearGradient>
<linearGradient id="paint24_linear" x1="583.89" y1="114.626" x2="564.762" y2="139.931" gradientUnits="userSpaceOnUse">
<stop stop-color="#5546FF" stop-opacity="0.13"/>
<stop offset="1" stop-color="#FF7223" stop-opacity="0.46"/>
</linearGradient>
<linearGradient id="paint25_linear" x1="560.814" y1="122.842" x2="555.932" y2="164.402" gradientUnits="userSpaceOnUse">
<stop stop-color="#74CCFF" stop-opacity="0"/>
<stop offset="0.655563" stop-color="#D88DC7" stop-opacity="0.6"/>
<stop offset="1" stop-color="#FF74B1" stop-opacity="0.49"/>
</linearGradient>
<linearGradient id="paint26_linear" x1="588.971" y1="132.047" x2="606.532" y2="165.834" gradientUnits="userSpaceOnUse">
<stop stop-color="#00CAFF" stop-opacity="0.66"/>
<stop offset="0.6249" stop-color="#204B9E" stop-opacity="0"/>
</linearGradient>
<linearGradient id="paint27_linear" x1="76.2297" y1="157.99" x2="105.177" y2="174.276" gradientUnits="userSpaceOnUse">
<stop stop-color="#0077FF"/>
<stop offset="1" stop-color="#E33170" stop-opacity="0.5904"/>
</linearGradient>
<linearGradient id="paint28_linear" x1="97.8901" y1="124.442" x2="78.7618" y2="149.747" gradientUnits="userSpaceOnUse">
<stop stop-color="#5546FF" stop-opacity="0.13"/>
<stop offset="1" stop-color="#FF7223" stop-opacity="0.46"/>
</linearGradient>
<linearGradient id="paint29_linear" x1="74.814" y1="132.658" x2="69.932" y2="174.218" gradientUnits="userSpaceOnUse">
<stop stop-color="#74CCFF" stop-opacity="0"/>
<stop offset="0.655563" stop-color="#D88DC7" stop-opacity="0.6"/>
<stop offset="1" stop-color="#FF74B1" stop-opacity="0.49"/>
</linearGradient>
<linearGradient id="paint30_linear" x1="102.971" y1="141.863" x2="120.532" y2="175.65" gradientUnits="userSpaceOnUse">
<stop stop-color="#00CAFF" stop-opacity="0.66"/>
<stop offset="0.6249" stop-color="#204B9E" stop-opacity="0"/>
</linearGradient>
<linearGradient id="paint31_linear" x1="502.23" y1="478.643" x2="531.177" y2="494.93" gradientUnits="userSpaceOnUse">
<stop stop-color="#0077FF"/>
<stop offset="1" stop-color="#FF74B1" stop-opacity="0.49"/>
</linearGradient>
<linearGradient id="paint32_linear" x1="523.89" y1="445.095" x2="504.762" y2="470.4" gradientUnits="userSpaceOnUse">
<stop stop-color="#5546FF" stop-opacity="0.13"/>
<stop offset="1" stop-color="#FF7223" stop-opacity="0.46"/>
</linearGradient>
<linearGradient id="paint33_linear" x1="500.814" y1="453.312" x2="495.932" y2="494.872" gradientUnits="userSpaceOnUse">
<stop stop-color="#74CCFF" stop-opacity="0"/>
<stop offset="0.655563" stop-color="#D88DC7" stop-opacity="0.6"/>
<stop offset="1" stop-color="#FF74B1" stop-opacity="0.49"/>
</linearGradient>
<linearGradient id="paint34_linear" x1="528.971" y1="462.516" x2="546.532" y2="496.304" gradientUnits="userSpaceOnUse">
<stop stop-color="#00CAFF" stop-opacity="0.66"/>
<stop offset="0.6249" stop-color="#204B9E" stop-opacity="0"/>
</linearGradient>
<linearGradient id="paint35_linear" x1="152.814" y1="86.572" x2="152.814" y2="146.572" gradientUnits="userSpaceOnUse">
<stop offset="0.0001" stop-color="#2BE6FF"/>
<stop offset="0.734375" stop-color="#5AB9FE" stop-opacity="0"/>
</linearGradient>
<linearGradient id="paint36_linear" x1="519.814" y1="123.572" x2="519.814" y2="183.572" gradientUnits="userSpaceOnUse">
<stop offset="0.0001" stop-color="#2BE6FF"/>
<stop offset="0.734375" stop-color="#5AB9FE" stop-opacity="0"/>
</linearGradient>
<linearGradient id="paint37_linear" x1="542.814" y1="285.572" x2="542.814" y2="345.572" gradientUnits="userSpaceOnUse">
<stop offset="0.0001" stop-color="#2BE6FF"/>
<stop offset="0.734375" stop-color="#5AB9FE" stop-opacity="0"/>
</linearGradient>
<linearGradient id="paint38_linear" x1="458.814" y1="33.572" x2="458.814" y2="93.572" gradientUnits="userSpaceOnUse">
<stop offset="0.0001" stop-color="#2BE6FF"/>
<stop offset="0.734375" stop-color="#5AB9FE" stop-opacity="0"/>
</linearGradient>
<linearGradient id="paint39_linear" x1="95.814" y1="192.572" x2="95.814" y2="252.572" gradientUnits="userSpaceOnUse">
<stop offset="0.0001" stop-color="#2BE6FF"/>
<stop offset="0.734375" stop-color="#5AB9FE" stop-opacity="0"/>
</linearGradient>
<radialGradient id="paint40_radial" cx="0" cy="0" r="1" gradientUnits="userSpaceOnUse" gradientTransform="translate(297.729 168.771) rotate(179.8) scale(184.894 168.102)">
<stop stop-color="#FF6798"/>
<stop offset="0.9917" stop-color="#5B4D9F" stop-opacity="0.01"/>
<stop offset="1" stop-color="#574EA0" stop-opacity="0"/>
</radialGradient>
<radialGradient id="paint41_radial" cx="0" cy="0" r="1" gradientUnits="userSpaceOnUse" gradientTransform="translate(388.327 153.332) rotate(179.8) scale(102.501 110.16)">
<stop stop-color="#90FFFF"/>
<stop offset="1" stop-color="#574EA0" stop-opacity="0"/>
</radialGradient>
<radialGradient id="paint42_radial" cx="0" cy="0" r="1" gradientUnits="userSpaceOnUse" gradientTransform="translate(244.327 126.066) rotate(179.8) scale(102.501 110.16)">
<stop stop-color="#90FFFF"/>
<stop offset="1" stop-color="#574EA0" stop-opacity="0"/>
</radialGradient>
</defs>
</svg>
