<svg width="20" height="20" viewBox="0 0 20 20" fill="none" xmlns="http://www.w3.org/2000/svg">
<path d="M11.0469 10.016C11.0469 12.6099 8.95834 14.7127 6.38215 14.7127C3.80597 14.7127 1.71729 12.6099 1.71729 10.016C1.71729 7.42204 3.80581 5.31909 6.38215 5.31909C8.9585 5.31909 11.0469 7.42204 11.0469 10.016ZM16.1642 10.016C16.1642 12.4576 15.1199 14.4377 13.8318 14.4377C12.5436 14.4377 11.4993 12.4576 11.4993 10.016C11.4993 7.57434 12.5434 5.59422 13.8316 5.59422C15.1198 5.59422 16.164 7.57371 16.164 10.016H16.1642ZM18.2573 10.016C18.2573 12.2031 17.8901 13.9772 17.437 13.9772C16.9839 13.9772 16.6168 12.2036 16.6168 10.016C16.6168 7.8284 16.9841 6.05478 17.437 6.05478C17.89 6.05478 18.2573 7.82824 18.2573 10.016Z" fill="#96A7C7"/>
</svg>
