<svg width="80" height="80" viewBox="0 0 80 80" fill="none" xmlns="http://www.w3.org/2000/svg">
<circle cx="40" cy="40" r="40" fill="white" fill-opacity="0.1"/>
<path fill-rule="evenodd" clip-rule="evenodd" d="M51.62 38.0491L46.1628 28.1873H46.5618C47.2863 28.1873 47.8742 27.5993 47.8742 26.8748C47.8742 26.1503 47.2863 25.5623 46.5618 25.5623H46.2547L48.9977 20.9871C49.2418 20.5802 49.2471 20.0762 49.0161 19.6641C48.7851 19.2546 48.3467 19 47.8742 19H34.7496C34.2771 19 33.8387 19.2546 33.6051 19.6641C33.3767 20.0762 33.382 20.5828 33.6235 20.9871L36.3692 25.5623H36.0621C35.3376 25.5623 34.7496 26.1503 34.7496 26.8748C34.7496 27.5993 35.3376 28.1873 36.0621 28.1873H36.461L31.0012 38.0517C30.6494 38.687 30.8804 39.485 31.5157 39.8367C32.1509 40.1858 32.9515 39.9601 33.3006 39.3248L39.4613 28.1873H43.1625L49.3258 39.3222C49.5647 39.7553 50.0109 39.9994 50.4729 39.9994C50.6882 39.9994 50.906 39.9469 51.1082 39.8341C51.7408 39.4823 51.9718 38.6844 51.62 38.0491ZM43.194 25.5623H39.4298L37.0674 21.6249H45.5564L43.194 25.5623ZM57.5261 41.3408C58.5813 41.4694 59.5184 42.0022 60.172 42.8448C60.8099 43.6533 61.0986 44.677 60.97 45.7191C60.8414 46.7744 60.3059 47.7115 59.4633 48.3624L48.3625 56.9958C47.2075 57.8857 45.7874 58.3739 44.3568 58.3739H26.8748V59.6864C26.8748 60.4109 26.2868 60.9989 25.5623 60.9989H20.3125C19.588 60.9989 19 60.4109 19 59.6864V41.3119C19 40.5874 19.588 39.9994 20.3125 39.9994H25.5623C26.2868 39.9994 26.8748 40.5874 26.8748 41.3119V42.6243H41.3119C42.0364 42.6243 42.6244 43.2123 42.6244 43.9368C42.6244 46.5092 41.556 48.8297 39.8472 50.4991H42.0994C43.2596 50.4991 44.3962 50.1054 45.2992 49.3914L54.6518 42.1387C55.4655 41.5009 56.4945 41.2069 57.5261 41.3408ZM57.8569 46.2862C58.143 46.0657 58.3215 45.7507 58.3661 45.3989C58.4055 45.0603 58.3136 44.727 58.1036 44.4618C57.8779 44.1678 57.5602 43.9893 57.2085 43.9447C56.862 43.8975 56.5391 43.9972 56.274 44.2046L46.9214 51.4573C45.5617 52.5282 43.8476 53.1241 42.0994 53.1241H33.4371C32.7126 53.1241 32.1247 52.5361 32.1247 51.8116C32.1247 51.0872 32.7126 50.4992 33.4371 50.4992C36.6054 50.4992 39.2592 48.2417 39.8682 45.2493H26.8748V55.749H44.3568C45.2099 55.749 46.0657 55.455 46.7586 54.9196L57.8569 46.2862ZM24.2499 58.374H21.6249V42.6244H24.2499V58.374Z" fill="url(#paint0_linear)"/>
<defs>
<linearGradient id="paint0_linear" x1="40" y1="19" x2="40" y2="60.9989" gradientUnits="userSpaceOnUse">
<stop stop-color="#EBF1FF"/>
<stop offset="0.703125" stop-color="#F0F3F7" stop-opacity="0.97"/>
<stop offset="1" stop-color="#E0EBF4" stop-opacity="0.3"/>
</linearGradient>
</defs>
</svg>
