<svg width="80" height="80" viewBox="0 0 80 80" fill="none" xmlns="http://www.w3.org/2000/svg">
<circle cx="40" cy="40" r="40" fill="white" fill-opacity="0.1"/>
<path fill-rule="evenodd" clip-rule="evenodd" d="M30.2121 19.6001C23.6996 19.6001 18.3999 25.2533 18.3999 32.2001C18.3999 39.1469 23.6996 44.8001 30.2121 44.8001C36.7245 44.8001 42.0242 39.1469 42.0242 32.2001C42.0242 25.2533 36.7245 19.6001 30.2121 19.6001ZM30.2121 30.8002C29.4088 30.8002 28.8996 30.341 28.8996 30.1002C28.8996 29.8594 29.4088 29.4002 30.2121 29.4002C30.611 29.4002 30.968 29.5038 31.241 29.697C31.8448 30.1198 32.6585 29.9518 33.0627 29.3106C33.4643 28.6666 33.3042 27.7958 32.7005 27.3674C32.3435 27.1154 31.9471 26.9222 31.5245 26.7934V25.2002C31.5245 24.4274 30.9365 23.8002 30.2121 23.8002C29.4876 23.8002 28.8996 24.4274 28.8996 25.2002V26.8158C27.3745 27.2974 26.2747 28.5798 26.2747 30.1002C26.2747 32.0294 28.0412 33.6002 30.2121 33.6002C31.0153 33.6002 31.5245 34.0594 31.5245 34.3002C31.5245 34.541 31.0153 35.0002 30.2121 35.0002C29.8131 35.0002 29.4561 34.8966 29.1831 34.7034C28.5794 34.2778 27.7656 34.4486 27.3614 35.0898C26.9598 35.7338 27.1199 36.6046 27.7236 37.033C28.0806 37.285 28.477 37.4782 28.8996 37.607V39.2002C28.8996 39.973 29.4876 40.6002 30.2121 40.6002C30.9365 40.6002 31.5245 39.973 31.5245 39.2002V37.5846C33.0496 37.103 34.1494 35.8206 34.1494 34.3002C34.1494 32.371 32.3829 30.8002 30.2121 30.8002ZM21.0248 32.2001C21.0248 37.6041 25.146 42.0001 30.2121 42.0001C35.2782 42.0001 39.3993 37.6041 39.3993 32.2001C39.3993 26.7961 35.2782 22.4001 30.2121 22.4001C25.146 22.4001 21.0248 26.7961 21.0248 32.2001ZM60.299 48.4653C60.0942 47.9417 59.6165 47.6001 59.0863 47.6001H52.524V32.2001C52.524 25.2533 47.2242 19.6001 40.7118 19.6001C40.2078 19.6001 39.7484 19.9081 39.5306 20.3925C39.3101 20.8797 39.3704 21.4537 39.6881 21.8737L42.6359 25.8049C43.9352 27.5381 44.6492 29.7109 44.6492 31.9285V47.6001H38.0869C37.5566 47.6001 37.0763 47.9417 36.8741 48.4653C36.672 48.9889 36.7849 49.5909 37.1576 49.9913L47.6573 61.1913C47.9146 61.4629 48.2506 61.6001 48.5866 61.6001C48.9226 61.6001 49.2585 61.4629 49.5158 61.1913L60.0155 49.9913C60.3909 49.5909 60.5037 48.9889 60.299 48.4653ZM41.2551 50.4001L48.5866 58.2205L55.918 50.4001H51.2115C50.487 50.4001 49.899 49.7729 49.899 49.0001V32.2001C49.899 27.9889 47.3975 24.3909 43.8984 23.0049L44.6859 24.0549C46.3527 26.2809 47.2741 29.0781 47.2741 31.9285V49.0001C47.2741 49.7729 46.6861 50.4001 45.9616 50.4001H41.2551Z" fill="url(#paint0_linear)"/>
<defs>
<linearGradient id="paint0_linear" x1="39.3999" y1="19.6001" x2="39.3999" y2="61.6001" gradientUnits="userSpaceOnUse">
<stop stop-color="#EBF1FF"/>
<stop offset="0.703125" stop-color="#F0F3F7" stop-opacity="0.97"/>
<stop offset="1" stop-color="#E0EBF4" stop-opacity="0.3"/>
</linearGradient>
</defs>
</svg>
