<svg width="80" height="80" viewBox="0 0 80 80" fill="none" xmlns="http://www.w3.org/2000/svg">
<circle cx="40" cy="40" r="40" fill="white" fill-opacity="0.1"/>
<path fill-rule="evenodd" clip-rule="evenodd" d="M59.6875 32.2749H40V29.6499C40 26.7545 37.6454 24.3999 34.75 24.3999H20.3125C19.588 24.3999 19 24.9879 19 25.7124V46.7124C19 47.4369 19.588 48.0249 20.3125 48.0249H26.875V54.5874C26.875 55.3119 27.463 55.8999 28.1875 55.8999H59.6875C60.412 55.8999 61 55.3119 61 54.5874V33.5874C61 32.8629 60.412 32.2749 59.6875 32.2749ZM34.75 53.2749H29.5V48.0249H34.75C36.199 48.0249 37.375 49.2035 37.375 50.6499C37.375 52.0963 36.199 53.2749 34.75 53.2749ZM34.75 45.3999C35.7108 45.3999 36.6006 45.6781 37.375 46.1296V29.6499C37.375 28.2035 36.199 27.0249 34.75 27.0249H21.625V45.3999H34.75ZM57.9047 53.2749H38.8C39.2515 52.5005 39.5297 51.6106 39.5297 50.6499V45.3999H43.4672C44.1917 45.3999 44.7797 44.8119 44.7797 44.0874C44.7797 43.3629 44.1917 42.7749 43.4672 42.7749H39.5297V40.1499H48.7172C49.4417 40.1499 50.0297 39.5619 50.0297 38.8374C50.0297 38.1129 49.4417 37.5249 48.7172 37.5249H39.5297V34.8999H57.9047V53.2749ZM51.8125 48.0249H54.4375C55.162 48.0249 55.75 48.6129 55.75 49.3374C55.75 50.0619 55.162 50.6499 54.4375 50.6499H51.8125C51.088 50.6499 50.5 50.0619 50.5 49.3374C50.5 48.6129 51.088 48.0249 51.8125 48.0249Z" fill="url(#paint0_linear)"/>
<defs>
<linearGradient id="paint0_linear" x1="40" y1="24.3999" x2="40" y2="55.8999" gradientUnits="userSpaceOnUse">
<stop stop-color="#EBF1FF"/>
<stop offset="0.703125" stop-color="#F0F3F7" stop-opacity="0.97"/>
<stop offset="1" stop-color="#E0EBF4" stop-opacity="0.3"/>
</linearGradient>
</defs>
</svg>
