<svg width="80" height="80" viewBox="0 0 80 80" fill="none" xmlns="http://www.w3.org/2000/svg">
<circle cx="40" cy="40" r="40" fill="white" fill-opacity="0.1"/>
<path fill-rule="evenodd" clip-rule="evenodd" d="M51.0171 20.1063L60.2046 24.0438C60.6876 24.2486 61 24.7237 61 25.2487V30.4987C61 37.7306 58.3304 41.9516 51.1536 46.0754C50.9515 46.1909 50.7257 46.2487 50.5 46.2487C50.2743 46.2487 50.0485 46.1909 49.8464 46.0728C42.6696 41.9411 40 37.7201 40 30.4987V25.2487C40 24.7237 40.3124 24.2486 40.7927 24.0438L49.9802 20.1063C50.3136 19.9646 50.6838 19.9646 51.0171 20.1063ZM59.6875 43.6237C58.963 43.6237 58.375 44.2117 58.375 44.9362V46.3826C54.3666 46.9627 51.214 50.1179 50.6339 54.1237H29.3661C28.786 50.1153 25.6334 46.9627 21.625 46.3826V38.2398C25.6334 37.6597 28.786 34.5071 29.3661 30.4987H36.0625C36.787 30.4987 37.375 29.9107 37.375 29.1862C37.375 28.4617 36.787 27.8737 36.0625 27.8737H21.625C20.176 27.8737 19 29.0523 19 30.4987V54.1237C19 55.5701 20.176 56.7487 21.625 56.7487H58.375C59.824 56.7487 61 55.5701 61 54.1237V44.9362C61 44.2117 60.412 43.6237 59.6875 43.6237ZM21.625 30.4987H26.7411C26.2187 33.0659 24.1922 35.0924 21.625 35.6148V30.4987ZM21.625 49.0076V54.1237H26.7411C26.2187 51.5564 24.1922 49.5299 21.625 49.0076ZM58.375 54.1237H53.2589C53.7812 51.5564 55.8077 49.5299 58.375 49.0076V54.1237ZM58.375 30.4987C58.375 36.5598 56.3695 39.8988 50.5 43.4137C44.6305 39.8883 42.625 36.5519 42.625 30.4987V26.1149L50.5 22.7392L58.375 26.1149V30.4987ZM53.4137 28.3619C53.8679 27.7976 54.6948 27.7083 55.2591 28.1572C55.8261 28.6113 55.9154 29.4356 55.4639 30.0026L50.2139 36.5651C49.9619 36.8774 49.5839 37.0586 49.1875 37.0586H49.1324C48.7124 37.0402 48.3291 36.8249 48.0955 36.4758L45.4705 32.5383C45.0689 31.9346 45.2343 31.1208 45.8354 30.7192C46.4313 30.3176 47.2502 30.4777 47.6545 31.0841L49.2873 33.5227L53.4137 28.3619Z" fill="url(#paint0_linear)"/>
<defs>
<linearGradient id="paint0_linear" x1="40" y1="20" x2="40" y2="56.7487" gradientUnits="userSpaceOnUse">
<stop stop-color="#EBF1FF"/>
<stop offset="0.703125" stop-color="#F0F3F7" stop-opacity="0.97"/>
<stop offset="1" stop-color="#E0EBF4" stop-opacity="0.3"/>
</linearGradient>
</defs>
</svg>
