<svg width="80" height="80" viewBox="0 0 80 80" fill="none" xmlns="http://www.w3.org/2000/svg">
<circle cx="40" cy="40" r="40" fill="white" fill-opacity="0.1"/>
<path fill-rule="evenodd" clip-rule="evenodd" d="M59.6007 41.3976C60.3735 41.3976 61.0007 40.7704 61.0007 39.9976C61.0007 39.2247 60.3735 38.5975 59.6007 38.5975H55.4006V32.9974H59.6007C60.3735 32.9974 61.0007 32.3702 61.0007 31.5974C61.0007 30.8246 60.3735 30.1974 59.6007 30.1974H55.4006V27.3973C55.4006 25.8517 54.1434 24.5973 52.6006 24.5973H49.8005V20.4C49.8005 19.6272 49.1733 19 48.4005 19C47.6277 19 47.0005 19.6272 47.0005 20.4V24.5973H41.4004V20.4C41.4004 19.6272 40.7732 19 40.0004 19C39.2275 19 38.6003 19.6272 38.6003 20.4V24.5973H33.0002V20.4C33.0002 19.6272 32.373 19 31.6002 19C30.8274 19 30.2002 19.6272 30.2002 20.4V24.5973H27.4001C25.8573 24.5973 24.6001 25.8517 24.6001 27.3973V30.1974H20.4C19.6272 30.1974 19 30.8246 19 31.5974C19 32.3702 19.6272 32.9974 20.4 32.9974H24.6001V38.5975H20.4C19.6272 38.5975 19 39.2247 19 39.9976C19 40.7704 19.6272 41.3976 20.4 41.3976H24.6001V46.9977H20.4C19.6272 46.9977 19 47.6249 19 48.3977C19 49.1705 19.6272 49.7977 20.4 49.7977H24.6001V52.5978C24.6001 54.1434 25.8573 55.3978 27.4001 55.3978H30.2002V59.5979C30.2002 60.3707 30.8274 60.9979 31.6002 60.9979C32.373 60.9979 33.0002 60.3707 33.0002 59.5979V55.3978H38.6003V59.5979C38.6003 60.3707 39.2275 60.9979 40.0004 60.9979C40.7732 60.9979 41.4004 60.3707 41.4004 59.5979V55.3978H47.0005V59.5979C47.0005 60.3707 47.6277 60.9979 48.4005 60.9979C49.1733 60.9979 49.8005 60.3707 49.8005 59.5979V55.3978H52.6006C54.1434 55.3978 55.4006 54.1434 55.4006 52.5978V49.7977H59.6007C60.3735 49.7977 61.0007 49.1705 61.0007 48.3977C61.0007 47.6249 60.3735 46.9977 59.6007 46.9977H55.4006V41.3976H59.6007ZM27.4 28.4C27.4 27.8477 27.8477 27.4 28.4 27.4H51.6C52.1523 27.4 52.6 27.8477 52.6 28.4V51.6C52.6 52.1523 52.1523 52.6 51.6 52.6H28.4C27.8477 52.6 27.4 52.1523 27.4 51.6V28.4ZM47.0002 35.7974C47.0002 37.4775 46.2413 38.9699 45.0653 39.9975C46.2413 41.0251 47.0002 42.5176 47.0002 44.1976C47.0002 47.286 44.4885 49.7977 41.4001 49.7977H34.3999C33.6271 49.7977 32.9999 49.1705 32.9999 48.3977V45.5976H31.5999C30.8271 45.5976 30.1999 44.9704 30.1999 44.1976C30.1999 43.4248 30.8271 42.7976 31.5999 42.7976H32.9999V31.5974C32.9999 30.8246 33.6271 30.1973 34.3999 30.1973H41.4001C44.4885 30.1973 47.0002 32.709 47.0002 35.7974ZM35.8 46.9976V45.5976H37.2C37.9728 45.5976 38.6 44.9704 38.6 44.1976C38.6 43.4248 37.9728 42.7976 37.2 42.7976H35.8V41.3975H41.4001C42.9429 41.3975 44.2001 42.652 44.2001 44.1976C44.2001 45.7432 42.9429 46.9976 41.4001 46.9976H35.8ZM35.8 38.5975H41.4001C42.9429 38.5975 44.2001 37.3431 44.2001 35.7974C44.2001 34.2518 42.9429 32.9974 41.4001 32.9974H35.8V38.5975Z" fill="url(#paint0_linear)"/>
<defs>
<linearGradient id="paint0_linear" x1="40.0004" y1="19" x2="40.0004" y2="60.9979" gradientUnits="userSpaceOnUse">
<stop stop-color="#EBF1FF"/>
<stop offset="0.703125" stop-color="#F0F3F7" stop-opacity="0.97"/>
<stop offset="1" stop-color="#E0EBF4" stop-opacity="0.3"/>
</linearGradient>
</defs>
</svg>
