<svg width="80" height="80" viewBox="0 0 80 80" fill="none" xmlns="http://www.w3.org/2000/svg">
<circle cx="40" cy="40" r="40" fill="white" fill-opacity="0.1"/>
<path fill-rule="evenodd" clip-rule="evenodd" d="M45.571 38.0417L40.7372 29.5H41.12C41.8486 29.5 42.44 28.912 42.44 28.1875C42.44 27.463 41.8486 26.875 41.12 26.875H40.9458L44.8582 21.0396C45.1302 20.638 45.1539 20.1183 44.9216 19.6904C44.6946 19.2678 44.2484 19 43.76 19H27.92C27.4316 19 26.9854 19.2677 26.7584 19.693C26.5261 20.1209 26.5525 20.638 26.8218 21.0422L30.7342 26.875H30.56C29.8314 26.875 29.24 27.463 29.24 28.1875C29.24 28.912 29.8314 29.5 30.56 29.5H30.9454L21.4652 46.2606C20.5042 47.9538 20 49.8752 20 51.8125C20 56.8787 24.1448 61 29.24 61H34.52C35.2486 61 35.84 60.412 35.84 59.6875C35.84 58.963 35.2486 58.375 34.52 58.375H29.24C25.5994 58.375 22.64 55.4324 22.64 51.8125C22.64 50.3267 23.0281 48.8489 23.7646 47.5469L33.9709 29.5H37.7091L43.2716 39.3306C43.628 39.9606 44.4358 40.189 45.0694 39.8294C45.703 39.475 45.9301 38.6744 45.571 38.0417ZM33.9075 26.875L30.3884 21.625H41.2942L37.7725 26.875H33.9075ZM59.6 49.1875C59.6 49.912 59.0087 50.5 58.28 50.5H56.96V53.125H58.28C59.0087 53.125 59.6 53.713 59.6 54.4375V59.6875C59.6 60.412 59.0087 61 58.28 61H39.8C39.0714 61 38.48 60.412 38.48 59.6875V55.75H37.16C36.4314 55.75 35.84 55.162 35.84 54.4375V49.1875C35.84 48.463 36.4314 47.875 37.16 47.875H38.48V43.9375C38.48 43.213 39.0714 42.625 39.8 42.625H58.28C59.0087 42.625 59.6 43.213 59.6 43.9375V49.1875ZM41.12 45.25H51.68V47.875H41.12V45.25ZM39.8 50.5H38.48V53.125H39.8H49.04V50.5H39.8ZM51.68 58.375H41.12V55.75H51.68V58.375ZM54.32 50.5H51.68V53.125H54.32V50.5ZM54.32 58.375V55.75H55.64H56.96V58.375H54.32ZM54.32 47.875H55.64H56.96V45.25H54.32V47.875Z" fill="url(#paint0_linear)"/>
<defs>
<linearGradient id="paint0_linear" x1="39.8" y1="19" x2="39.8" y2="61" gradientUnits="userSpaceOnUse">
<stop stop-color="#EBF1FF"/>
<stop offset="0.703125" stop-color="#F0F3F7" stop-opacity="0.97"/>
<stop offset="1" stop-color="#E0EBF4" stop-opacity="0.3"/>
</linearGradient>
</defs>
</svg>
